<?xml version="1.0" encoding="UTF-8"?>
<svg version="1.1" xmlns="http://www.w3.org/2000/svg" width="36" height="32">
<path d="M0 0 C0.66 0 1.32 0 2 0 C2.66666667 2 3.33333333 4 4 6 C5.37514541 7.7087646 5.37514541 7.7087646 7 9 C7.66 9 8.32 9 9 9 C10.17638558 14.52901224 10.23379981 19.68902698 8 25 C7.01 25.33 6.02 25.66 5 26 C4.34 25.67 3.68 25.34 3 25 C2.67 25.99 2.34 26.98 2 28 C-0.75874035 30.75874035 -2.46676471 30.29943408 -6.3125 30.3125 C-7.44300781 30.32925781 -8.57351563 30.34601562 -9.73828125 30.36328125 C-13.28265865 29.96851826 -15.19080122 29.16619268 -18 27 C-18 26.34 -18 25.68 -18 25 C-18.99 25.33 -19.98 25.66 -21 26 C-24.0753663 22.02765186 -24.32551243 18.91676047 -24.30078125 14.0859375 C-24 12 -24 12 -22 9 C-21.34 9 -20.68 9 -20 9 C-20 7.02 -20 5.04 -20 3 C-19.34 2.67 -18.68 2.34 -18 2 C-17.67 1.01 -17.34 0.02 -17 -1 C-11.2934422 -2.42663945 -5.1975288 -3.19847926 0 0 Z M-18 16 C-17 18 -17 18 -17 18 Z " fill="#1A3650" transform="translate(24,2)"/>
<path d="M0 0 C0.66 0 1.32 0 2 0 C5.11627907 9.34883721 5.11627907 9.34883721 3 14.375 C2.67 14.91125 2.34 15.4475 2 16 C1.01 15.67 0.02 15.34 -1 15 C-0.94779297 14.07767578 -0.94779297 14.07767578 -0.89453125 13.13671875 C-0.86746094 12.32847656 -0.84039063 11.52023437 -0.8125 10.6875 C-0.77769531 9.88699219 -0.74289063 9.08648437 -0.70703125 8.26171875 C-1.06868047 5.4697868 -1.80369917 4.69902517 -4 3 C-6.59915538 1.80972016 -6.59915538 1.80972016 -9 1 C-9.33 1.33 -9.66 1.66 -10 2 C-8.35 2.33 -6.7 2.66 -5 3 C-5 3.66 -5 4.32 -5 5 C-5.66 5 -6.32 5 -7 5 C-7 5.66 -7 6.32 -7 7 C-6.38125 6.814375 -5.7625 6.62875 -5.125 6.4375 C-3 6 -3 6 -1 7 C-1.4819647 13.38603223 -1.4819647 13.38603223 -3.6875 16 C-6.8141487 17.3520643 -8.75114652 16.847527 -12 16 C-12.66 15.67 -13.32 15.34 -14 15 C-14.33 15.66 -14.66 16.32 -15 17 C-16.94921875 16.3125 -16.94921875 16.3125 -19 15 C-19.64453125 12.6875 -19.64453125 12.6875 -19.8125 10 C-19.88082031 9.113125 -19.94914062 8.22625 -20.01953125 7.3125 C-20 5 -20 5 -19 3 C-18.7525 2.319375 -18.505 1.63875 -18.25 0.9375 C-17 -1 -17 -1 -14.875 -1.75 C-4.33333333 -2.66666667 -4.33333333 -2.66666667 0 0 Z " fill="#787048" transform="translate(24,2)"/>
<path d="M0 0 C1.65 0.33 3.3 0.66 5 1 C6.17638558 6.52901224 6.23379981 11.68902698 4 17 C3.01 17.33 2.02 17.66 1 18 C0.34 17.67 -0.32 17.34 -1 17 C-1.33 17.99 -1.66 18.98 -2 20 C-4 22 -4 22 -6.1640625 22.1953125 C-6.97617187 22.17210938 -7.78828125 22.14890625 -8.625 22.125 C-9.44226563 22.10695313 -10.25953125 22.08890625 -11.1015625 22.0703125 C-11.72804688 22.04710938 -12.35453125 22.02390625 -13 22 C-12.34 21.67 -11.68 21.34 -11 21 C-11.20625 20.38125 -11.4125 19.7625 -11.625 19.125 C-11.810625 18.073125 -11.810625 18.073125 -12 17 C-11.34 16.34 -10.68 15.68 -10 15 C-9.67 15 -9.34 15 -9 15 C-8.67 14.01 -8.34 13.02 -8 12 C-7.01 12.33 -6.02 12.66 -5 13 C-4.67 11.68 -4.34 10.36 -4 9 C-3.34 9 -2.68 9 -2 9 C-1.34 6.03 -0.68 3.06 0 0 Z " fill="#29445E" transform="translate(28,10)"/>
<path d="M0 0 C1.32 0 2.64 0 4 0 C4 0.66 4 1.32 4 2 C5.2065625 2.433125 5.2065625 2.433125 6.4375 2.875 C9 4 9 4 10 6 C10.09685088 8.16490195 10.12979438 10.33293803 10.125 12.5 C10.12886719 14.24796875 10.12886719 14.24796875 10.1328125 16.03125 C10 19 10 19 9 21 C8.01 21 7.02 21 6 21 C6.33 22.32 6.66 23.64 7 25 C5.68 25 4.36 25 3 25 C3 26.32 3 27.64 3 29 C2.01 28.67 1.02 28.34 0 28 C-0.33 25.69 -0.66 23.38 -1 21 C-2.65 21.66 -4.3 22.32 -6 23 C-5.649375 22.46375 -5.29875 21.9275 -4.9375 21.375 C-3.71075751 18.26725237 -4.27143569 16.20568297 -5 13 C-4.113125 13.515625 -3.22625 14.03125 -2.3125 14.5625 C1.2102641 16.09124668 2.47445321 16.37104598 6 15 C7.9451 12.08235 8.45276317 10.37462715 9 7 C7.02 7 5.04 7 3 7 C3 6.34 3 5.68 3 5 C3.66 5 4.32 5 5 5 C5 4.34 5 3.68 5 3 C2.69 3 0.38 3 -2 3 C-1.34 2.67 -0.68 2.34 0 2 C0 1.34 0 0.68 0 0 Z " fill="#344C67" transform="translate(14,2)"/>
<path d="M0 0 C0.53625 0.33 1.0725 0.66 1.625 1 C2.285 1 2.945 1 3.625 1 C6.74127907 10.34883721 6.74127907 10.34883721 4.625 15.375 C4.295 15.91125 3.965 16.4475 3.625 17 C2.635 16.67 1.645 16.34 0.625 16 C0.67720703 15.07767578 0.67720703 15.07767578 0.73046875 14.13671875 C0.75753906 13.32847656 0.78460937 12.52023437 0.8125 11.6875 C0.84730469 10.88699219 0.88210937 10.08648437 0.91796875 9.26171875 C0.55652646 6.47138424 -0.18757748 5.70536021 -2.375 4 C-4.86534386 2.70339566 -4.86534386 2.70339566 -7.375 2 C-8.365 2.495 -8.365 2.495 -9.375 3 C-9.375 2.34 -9.375 1.68 -9.375 1 C-11.685 2.65 -13.995 4.3 -16.375 6 C-16.375 4.35 -16.375 2.7 -16.375 1 C-11.00531584 -1.14787366 -5.51991173 -2.32417336 0 0 Z " fill="#9A8237" transform="translate(22.375,1)"/>
<path d="M0 0 C1.134375 0.020625 2.26875 0.04125 3.4375 0.0625 C3.4375 0.7225 3.4375 1.3825 3.4375 2.0625 C2.7775 2.0625 2.1175 2.0625 1.4375 2.0625 C1.4375 2.7225 1.4375 3.3825 1.4375 4.0625 C2.05625 3.876875 2.675 3.69125 3.3125 3.5 C5.4375 3.0625 5.4375 3.0625 7.4375 4.0625 C6.9555353 10.44853223 6.9555353 10.44853223 4.75 13.0625 C1.56582007 14.43944267 -0.27174801 14.042724 -3.5625 13.0625 C-5.4375 11.8125 -5.4375 11.8125 -6.5625 10.0625 C-6.75 7.375 -6.75 7.375 -6.5625 5.0625 C-4.5825 6.0525 -4.5825 6.0525 -2.5625 7.0625 C-2.5625 8.0525 -2.5625 9.0425 -2.5625 10.0625 C-1.9025 10.3925 -1.2425 10.7225 -0.5625 11.0625 C-0.8925 9.7425 -1.2225 8.4225 -1.5625 7.0625 C0.375 7.4375 0.375 7.4375 2.4375 8.0625 C2.7675 8.7225 3.0975 9.3825 3.4375 10.0625 C3.4375 9.0725 3.4375 8.0825 3.4375 7.0625 C2.2309375 6.629375 2.2309375 6.629375 1 6.1875 C-1.5625 5.0625 -1.5625 5.0625 -2.5625 3.0625 C-3.2225 3.7225 -3.8825 4.3825 -4.5625 5.0625 C-4.5625 0.08004386 -4.5625 0.08004386 0 0 Z " fill="#D1A240" transform="translate(15.5625,4.9375)"/>
<path d="M0 0 C1.65 0.33 3.3 0.66 5 1 C5.76173392 5.3164922 6.16063604 8.74433453 5 13 C3.5 11.6875 3.5 11.6875 2 10 C2 9.01 2 8.02 2 7 C1.34 7 0.68 7 0 7 C-0.66 7.66 -1.32 8.32 -2 9 C-1.34 6.03 -0.68 3.06 0 0 Z " fill="#192F49" transform="translate(28,10)"/>
<path d="M0 0 C1.98 0.99 1.98 0.99 4 2 C4 2.99 4 3.98 4 5 C4.66 5.33 5.32 5.66 6 6 C5.67 4.68 5.34 3.36 5 2 C6.32 2.33 7.64 2.66 9 3 C9 4.98 9 6.96 9 9 C3.6 8.4 3.6 8.4 1.125 6.75 C-0.37422891 4.41786614 -0.22023906 2.71628175 0 0 Z " fill="#D19225" transform="translate(9,10)"/>
<path d="M0 0 C0.66 0 1.32 0 2 0 C2.99 3.3 3.98 6.6 5 10 C1 11 1 11 -0.8125 10 C-2.66503248 6.8799453 -1.76096633 4.42434846 -1 1 C-0.67 0.67 -0.34 0.34 0 0 Z " fill="#223D58" transform="translate(2,11)"/>
<path d="M0 0 C1.34307516 4.02922547 1.67229935 7.40328905 0 11.375 C-0.33 11.91125 -0.66 12.4475 -1 13 C-1.99 12.67 -2.98 12.34 -4 12 C-3.67 8.37 -3.34 4.74 -3 1 C-2.01 0.67 -1.02 0.34 0 0 Z " fill="#8D7B3E" transform="translate(27,5)"/>
<path d="M0 0 C5.875 3.625 5.875 3.625 7 7 C4.03 7 1.06 7 -2 7 C-1.34 6.67 -0.68 6.34 0 6 C-0.2784375 5.071875 -0.2784375 5.071875 -0.5625 4.125 C-1 2 -1 2 0 0 Z " fill="#1D3852" transform="translate(17,25)"/>
<path d="M0 0 C0.99 0 1.98 0 3 0 C3 1.65 3 3.3 3 5 C1.3125 5.6875 1.3125 5.6875 -1 6 C-3.75 4.5625 -3.75 4.5625 -6 3 C-5.67 2.34 -5.34 1.68 -5 1 C-3.02 1.495 -3.02 1.495 -1 2 C-0.67 1.34 -0.34 0.68 0 0 Z " fill="#284258" transform="translate(12,26)"/>
<path d="M0 0 C1.32 0 2.64 0 4 0 C4 0.66 4 1.32 4 2 C4.66 2 5.32 2 6 2 C6.66 3.65 7.32 5.3 8 7 C6.35 7 4.7 7 3 7 C3 6.34 3 5.68 3 5 C3.66 5 4.32 5 5 5 C5 4.34 5 3.68 5 3 C2.69 3 0.38 3 -2 3 C-1.34 2.67 -0.68 2.34 0 2 C0 1.34 0 0.68 0 0 Z " fill="#454543" transform="translate(14,2)"/>
<path d="M0 0 C0.99 0 1.98 0 3 0 C2.67 1.32 2.34 2.64 2 4 C1.01 4 0.02 4 -1 4 C-0.67 5.32 -0.34 6.64 0 8 C-1.9375 7.25 -1.9375 7.25 -4 6 C-4.75 3.875 -4.75 3.875 -5 2 C-4.360625 1.855625 -3.72125 1.71125 -3.0625 1.5625 C-1.02454854 1.18992819 -1.02454854 1.18992819 0 0 Z " fill="#677C90" transform="translate(21,19)"/>
<path d="M0 0 C0.66 0.33 1.32 0.66 2 1 C1.67 1.66 1.34 2.32 1 3 C2.65 3.33 4.3 3.66 6 4 C6.33 5.32 6.66 6.64 7 8 C6.01 8 5.02 8 4 8 C4 7.34 4 6.68 4 6 C1.53673288 4.3553326 1.53673288 4.3553326 -1 3 C-0.67 2.01 -0.34 1.02 0 0 Z " fill="#14315C" transform="translate(13,7)"/>
<path d="M0 0 C0.99 0.33 1.98 0.66 3 1 C3.6875 3.0625 3.6875 3.0625 4 5 C2.68 5.33 1.36 5.66 0 6 C-0.38218767 4.34385343 -0.71395102 2.67542976 -1 1 C-0.67 0.67 -0.34 0.34 0 0 Z " fill="#3F5972" transform="translate(3,16)"/>
<path d="M0 0 C1.4540625 0.0309375 1.4540625 0.0309375 2.9375 0.0625 C-1.8125 4.9375 -1.8125 4.9375 -4.0625 6.0625 C-4.105221 4.39638095 -4.10313832 2.72867115 -4.0625 1.0625 C-3.0625 0.0625 -3.0625 0.0625 0 0 Z " fill="#997415" transform="translate(10.0625,0.9375)"/>
<path d="" fill="#000000" transform="translate(0,0)"/>
<path d="" fill="#000000" transform="translate(0,0)"/>
<path d="" fill="#000000" transform="translate(0,0)"/>
<path d="" fill="#000000" transform="translate(0,0)"/>
<path d="" fill="#000000" transform="translate(0,0)"/>
<path d="" fill="#000000" transform="translate(0,0)"/>
<path d="" fill="#000000" transform="translate(0,0)"/>
<path d="" fill="#000000" transform="translate(0,0)"/>
<path d="" fill="#000000" transform="translate(0,0)"/>
<path d="" fill="#000000" transform="translate(0,0)"/>
<path d="" fill="#000000" transform="translate(0,0)"/>
<path d="" fill="#000000" transform="translate(0,0)"/>
<path d="" fill="#000000" transform="translate(0,0)"/>
</svg>
