<svg width="215" height="92" viewBox="0 0 215 92" fill="none" xmlns="http://www.w3.org/2000/svg">
<path d="M21.8186 40.76V42H13.6586V41.2L17.9786 36.32C19.6186 34.46 20.2186 33.46 20.2186 32.16C20.2186 30.64 19.0986 29.52 17.5186 29.52C15.8786 29.52 14.7186 30.66 14.7186 32.34H13.3586C13.3586 29.98 15.0986 28.28 17.5786 28.28C19.9386 28.28 21.6786 29.86 21.6786 32.04C21.6786 33.5 21.0986 34.6 19.0186 36.92L15.7186 40.76H21.8186ZM28.1134 42.2C25.6534 42.2 23.7734 40.54 23.6934 38.24H25.0534C25.1734 39.9 26.4134 40.96 28.1134 40.96C30.1734 40.96 31.3534 39.68 31.3534 37.78C31.3534 36.08 30.0734 34.72 28.1534 34.72C26.8534 34.72 25.8534 35.28 25.1934 36.32L24.1134 36L25.2934 28.48H32.0134V29.7H26.2934L25.5534 34.58C26.3734 33.84 27.2934 33.52 28.3334 33.52C31.0934 33.52 32.7734 35.44 32.7734 37.76C32.7734 40.3 31.0134 42.2 28.1134 42.2ZM36.7138 42H35.2138V27.64H36.7138V34.56L43.5138 27.64H45.2538L38.2538 34.8L45.4538 42H43.5138L36.7138 35.26V42ZM53.158 40.26H51.878V35.88H47.518V34.7H51.878V30.34H53.158V34.7H57.518V35.88H53.158V40.26ZM75.0408 42L73.5408 38.02H66.8408L65.3208 42H63.8408L69.4208 27.64H71.0608L76.6208 42H75.0408ZM70.2008 29.24L67.3008 36.8H73.0608L70.2008 29.24ZM82.0225 42.22C79.2425 42.22 77.3025 39.96 77.3025 36.72C77.3025 33.52 79.2625 31.26 82.0225 31.26C84.4825 31.26 86.2425 32.9 86.6625 35.54H85.2425C84.9225 33.62 83.7225 32.48 82.0225 32.48C80.0625 32.48 78.7225 34.2 78.7225 36.72C78.7225 39.28 80.0625 41 82.0225 41C83.7425 41 84.9225 39.88 85.2425 37.92H86.6625C86.2825 40.6 84.5025 42.22 82.0225 42.22ZM94.3423 40.66V41.9C93.8023 42.12 93.3423 42.2 92.8223 42.2C91.0823 42.2 89.7423 41.3 89.7423 39.02V32.64H87.2623V31.46H89.7423V28.34H91.1423V31.46H94.4423V32.64H91.1423V38.72C91.1423 40.36 91.9423 40.92 93.1023 40.92C93.5423 40.92 93.9023 40.84 94.3423 40.66ZM98.3791 29.02C98.3791 29.64 97.9191 30.08 97.2391 30.08C96.5791 30.08 96.1191 29.64 96.1191 29.02C96.1191 28.42 96.5791 27.98 97.2391 27.98C97.9191 27.98 98.3791 28.42 98.3791 29.02ZM97.9591 42H96.5591V31.46H97.9591V42ZM109.113 31.46L105.053 42H103.593L99.5727 31.46H101.073L104.373 40.36L107.673 31.46H109.113ZM114.566 42.2C111.606 42.2 109.646 39.98 109.646 36.64C109.646 33.56 111.686 31.26 114.486 31.26C117.486 31.26 119.446 33.68 119.206 37.06H111.046C111.166 39.56 112.486 41.1 114.546 41.1C116.306 41.1 117.526 40.12 117.866 38.44H119.246C118.766 40.78 116.986 42.2 114.566 42.2ZM114.466 32.34C112.566 32.34 111.226 33.8 111.046 36.1H117.746C117.626 33.74 116.406 32.34 114.466 32.34ZM45.158 66L43.658 62.02H36.958L35.438 66H33.958L39.538 51.64H41.178L46.738 66H45.158ZM40.318 53.24L37.418 60.8H43.178L40.318 53.24ZM52.1397 66.22C49.3597 66.22 47.4197 63.96 47.4197 60.72C47.4197 57.52 49.3797 55.26 52.1397 55.26C54.5997 55.26 56.3597 56.9 56.7797 59.54H55.3597C55.0397 57.62 53.8397 56.48 52.1397 56.48C50.1797 56.48 48.8397 58.2 48.8397 60.72C48.8397 63.28 50.1797 65 52.1397 65C53.8597 65 55.0397 63.88 55.3597 61.92H56.7797C56.3997 64.6 54.6197 66.22 52.1397 66.22ZM62.8428 66.22C60.0628 66.22 58.1228 63.96 58.1228 60.72C58.1228 57.52 60.0828 55.26 62.8428 55.26C65.3028 55.26 67.0628 56.9 67.4828 59.54H66.0628C65.7428 57.62 64.5428 56.48 62.8428 56.48C60.8828 56.48 59.5428 58.2 59.5428 60.72C59.5428 63.28 60.8828 65 62.8428 65C64.5628 65 65.7428 63.88 66.0628 61.92H67.4828C67.1028 64.6 65.3228 66.22 62.8428 66.22ZM73.8259 66.2C70.9259 66.2 68.8259 63.9 68.8259 60.72C68.8259 57.56 70.9259 55.28 73.8259 55.28C76.7459 55.28 78.8459 57.56 78.8459 60.72C78.8459 63.9 76.7459 66.2 73.8259 66.2ZM73.8259 64.98C75.8859 64.98 77.4259 63.34 77.4259 60.72C77.4259 58.14 75.8859 56.5 73.8259 56.5C71.7859 56.5 70.2459 58.14 70.2459 60.72C70.2459 63.34 71.7859 64.98 73.8259 64.98ZM87.8498 61.74V55.46H89.2298V66H87.9298V64.1C87.3898 65.32 86.1098 66.2 84.5698 66.2C82.4298 66.2 81.0098 64.98 81.0098 62.32V55.46H82.4098V62.02C82.4098 64.16 83.4698 64.98 84.9498 64.98C86.6298 64.98 87.8498 63.62 87.8498 61.74ZM93.6622 59.86V66H92.2622V55.46H93.5622V57.44C94.2422 56.14 95.5222 55.26 97.0422 55.26C99.2422 55.26 100.662 56.66 100.662 59.16V66H99.2622V59.64C99.2622 57.62 98.3422 56.48 96.6222 56.48C94.9822 56.48 93.6622 57.9 93.6622 59.86ZM109.01 64.66V65.9C108.47 66.12 108.01 66.2 107.49 66.2C105.75 66.2 104.41 65.3 104.41 63.02V56.64H101.93V55.46H104.41V52.34H105.81V55.46H109.11V56.64H105.81V62.72C105.81 64.36 106.61 64.92 107.77 64.92C108.21 64.92 108.57 64.84 109.01 64.66ZM119.088 63.06C119.088 65 117.528 66.2 114.928 66.2C112.308 66.2 110.708 64.88 110.508 62.7H111.848C111.948 64.2 113.128 65.14 114.928 65.14C116.648 65.14 117.688 64.48 117.688 63.28C117.688 62.24 117.088 61.76 115.488 61.44L113.968 61.14C111.968 60.76 110.908 59.78 110.908 58.26C110.908 56.5 112.468 55.26 114.768 55.26C117.188 55.26 118.788 56.56 118.948 58.66H117.628C117.488 57.2 116.428 56.34 114.768 56.34C113.288 56.34 112.268 57.04 112.268 58.14C112.268 59.18 112.908 59.68 114.468 59.98L116.048 60.28C118.148 60.68 119.088 61.56 119.088 63.06Z" fill="white"/>
<path d="M69 1H118C126.837 1 134 8.16344 134 17V75C134 83.8366 126.837 91 118 91H69" stroke="url(#paint0_linear_3635_4357)" stroke-width="2"/>
<path d="M134 46L215 46" stroke="url(#paint1_linear_3635_4357)" stroke-width="2"/>
<defs>
<linearGradient id="paint0_linear_3635_4357" x1="134" y1="46" x2="69" y2="46" gradientUnits="userSpaceOnUse">
<stop stop-color="#0084FF"/>
<stop offset="1" stop-color="#0084FF" stop-opacity="0"/>
</linearGradient>
<linearGradient id="paint1_linear_3635_4357" x1="215" y1="45.5" x2="134" y2="45.4999" gradientUnits="userSpaceOnUse">
<stop stop-color="#0084FF" stop-opacity="0"/>
<stop offset="1" stop-color="#0084FF"/>
</linearGradient>
</defs>
</svg>
