<svg width="70" height="48" viewBox="0 0 70 48" fill="none" xmlns="http://www.w3.org/2000/svg">
<rect x="0.5" y="0.5" width="69" height="47" rx="5.5" fill="white" fill-opacity="0.04" stroke="url(#paint0_linear_3593_723)"/>
<path d="M56.2617 19.8257L55.7109 22.1685L54.876 25.7017C54.8 25.9961 54.7524 26.2711 54.7334 26.5269C54.7144 26.7831 54.7457 27.0046 54.8281 27.1899C54.9104 27.3757 55.0533 27.5193 55.2559 27.6216C55.4581 27.7241 55.7364 27.7758 56.0908 27.7759C56.3945 27.7759 56.689 27.7465 56.9736 27.689C57.1252 27.6583 57.2783 27.6192 57.4316 27.5757L57.6514 26.6392H57.6494L59.249 19.8315H61.999L61.6367 21.3735C61.639 21.3745 61.6422 21.3753 61.6445 21.3765L59.7412 29.4683C59.5564 30.2783 59.3124 30.9789 59.0107 31.5708C58.7088 32.1622 58.3334 32.655 57.8838 33.0474C57.4341 33.4399 56.8948 33.7321 56.2666 33.9253C55.6384 34.1183 54.9049 34.2153 54.0674 34.2153C53.6193 34.2153 53.2137 34.19 52.8477 34.1421L53.3887 31.8394C53.6656 31.8781 53.9713 31.8979 54.3076 31.8979C55.0958 31.8979 55.6902 31.7199 56.0908 31.3647C56.491 31.0098 56.7411 30.5553 56.8643 29.9946L56.8652 29.9897C56.8477 29.9941 56.8304 29.9983 56.8125 30.0024C56.3694 30.1049 55.8439 30.1567 55.2363 30.1567C54.3633 30.1567 53.6858 30.0252 53.2051 29.7632C52.7239 29.501 52.383 29.1415 52.1807 28.687C51.9781 28.2329 51.8885 27.7113 51.9141 27.1226C51.9393 26.5339 52.0289 25.913 52.1807 25.2603L53.4521 19.8257H56.2617ZM37.1436 19.8325C37.8387 19.8326 38.4376 19.9395 38.9404 20.1528C39.4435 20.3665 39.8566 20.6585 40.1797 21.0288C40.5022 21.3993 40.7411 21.8329 40.8965 22.3286C41.0514 22.8249 41.1289 23.3555 41.1289 23.9204C41.1289 24.8372 40.9806 25.6755 40.6826 26.4351C40.3847 27.1951 39.971 27.8515 39.4434 28.4038C38.9154 28.9565 38.2823 29.3863 37.5439 29.6938C36.805 30.0014 36.0001 30.1558 35.1309 30.1558C34.7087 30.1557 34.2862 30.1179 33.8643 30.0425L33.0264 33.4526H30.2695L33.4697 19.8325C33.9356 19.8322 36.3985 19.8325 37.1436 19.8325ZM21.8838 30.1587H19.1328L21.5615 19.8257H24.3115L21.8838 30.1587ZM28.748 19.8286H31.9004L31.3301 22.1714H28.1982L27.3623 25.7036C27.2863 25.9982 27.2388 26.2739 27.2197 26.5298C27.2009 26.7858 27.2329 27.0066 27.3154 27.1919C27.3976 27.3776 27.5394 27.5222 27.7422 27.6245C27.9443 27.727 28.223 27.7778 28.5771 27.7778C28.8808 27.7778 29.1753 27.7485 29.46 27.6909C29.6462 27.6533 29.8398 27.6089 30.0322 27.5425L29.459 29.9663C29.4139 29.9773 29.3444 29.9938 29.2988 30.0044C28.8558 30.1067 28.3309 30.1587 27.7236 30.1587C26.8502 30.1587 26.1722 30.0274 25.6914 29.7651C25.2105 29.503 24.8693 29.1442 24.667 28.6899C24.4644 28.2357 24.3758 27.7135 24.4014 27.1245C24.4266 26.536 24.5152 25.9149 24.667 25.2622L26.5273 17.313L29.4697 16.8521L28.748 19.8286ZM13.9414 20.1831C14.1882 20.0707 14.4217 19.9899 14.6689 19.9272C14.9156 19.8649 15.1809 19.8335 15.4648 19.8335C16.0577 19.8335 16.5704 19.9396 17.0029 20.1519C17.435 20.3643 17.793 20.652 18.0771 21.0142C18.3609 21.3765 18.571 21.8006 18.707 22.2876C18.8428 22.7747 18.9111 23.2999 18.9111 23.8618C18.9111 24.7234 18.7533 25.5382 18.4385 26.3062C18.1235 27.0742 17.6946 27.7428 17.1514 28.311C16.6078 28.8794 15.9655 29.329 15.2246 29.6597C14.4838 29.9905 13.6806 30.1567 12.8164 30.1567C12.7053 30.1567 12.5103 30.1531 12.2324 30.147C11.9546 30.1405 11.6363 30.1128 11.2783 30.063C10.9202 30.0129 10.5407 29.9373 10.1396 29.8374C9.73806 29.7376 9.35808 29.6003 9 29.4253L12.2051 15.8052L15.0762 15.356L13.9414 20.1831ZM50.4619 25.647C50.289 26.3581 50.2395 27.0723 50.3135 27.7896C50.3877 28.5072 50.6593 29.6065 50.9238 30.1567H48.2617C47.9366 29.6005 47.9512 29.3395 47.8896 29.1646C47.5442 29.4517 47.1614 29.6884 46.7422 29.8755C46.3227 30.0626 45.8541 30.1567 45.3359 30.1567C44.7191 30.1567 44.1916 30.0467 43.7539 29.8286C43.3159 29.6104 42.9581 29.3177 42.6807 28.9497C42.4031 28.582 42.2021 28.1515 42.0791 27.6587C41.9555 27.1659 41.8945 26.638 41.8945 26.0767C41.8946 25.216 42.0452 24.4049 42.3477 23.644C42.6498 22.8832 43.0699 22.2186 43.6064 21.6509C44.1432 21.0831 45.438 19.8316 47.5625 19.8315H51.8301L50.4619 25.647ZM34.3672 27.7817C34.5783 27.8321 34.8389 27.8579 35.1494 27.8579C35.6335 27.8579 36.0741 27.7665 36.4717 27.5845C36.8688 27.4025 37.2079 27.1484 37.4873 26.8218C37.7667 26.4953 37.9842 26.1027 38.1396 25.644C38.2947 25.1857 38.3721 24.6802 38.3721 24.1274C38.3721 23.5877 38.2542 23.1291 38.0186 22.7524C37.7825 22.3757 37.3686 22.1749 36.7852 22.1724C36.3807 22.1708 35.7108 22.1714 35.6992 22.1714L34.3672 27.7817ZM14.7334 22.1714C14.5605 22.1714 14.3812 22.1881 14.1035 22.2505C13.8259 22.3132 13.5863 22.4426 13.3643 22.6421L12.1562 27.7817C12.5132 27.845 12.637 27.852 12.7236 27.8521H13.0576C13.4896 27.852 13.8975 27.746 14.2803 27.5337C14.6628 27.3214 14.9937 27.037 15.2715 26.6812C15.5491 26.3252 15.7681 25.9225 15.9287 25.4731C16.089 25.0237 16.1689 24.555 16.1689 24.0679C16.1689 23.4684 16.0705 22.9997 15.873 22.6626C15.6753 22.3252 15.2641 22.1714 14.7334 22.1714ZM48.5088 22.1714C47.2262 22.1714 46.9806 22.1711 46.4551 22.4468C46.0822 22.6423 45.7731 22.9368 45.502 23.2798C45.2307 23.6228 45.0182 24.0186 44.8643 24.4673C44.7098 24.9166 44.6328 25.3851 44.6328 25.8716C44.6329 26.4701 44.7312 26.9444 44.9287 27.2935C45.1257 27.6428 45.4901 27.8169 46.0205 27.8169C46.304 27.8169 46.5598 27.7612 46.7881 27.6489C47.0162 27.5367 47.2605 27.3493 47.5195 27.0874C47.5442 26.7758 47.5841 26.4483 47.6396 26.105C47.6951 25.7621 47.7653 25.444 47.8271 25.1567L48.5088 22.1714ZM24.5967 18.6313H21.8457L22.2676 16.8364H25.0186L24.5967 18.6313Z" fill="white"/>
<defs>
<linearGradient id="paint0_linear_3593_723" x1="1.5" y1="3.0331e-07" x2="70" y2="49.5" gradientUnits="userSpaceOnUse">
<stop stop-color="#D9D9D9" stop-opacity="0.3"/>
<stop offset="0.5" stop-color="#737373" stop-opacity="0"/>
<stop offset="1" stop-color="#D9D9D9" stop-opacity="0.3"/>
</linearGradient>
</defs>
</svg>
