<svg width="272" height="92" viewBox="0 0 272 92" fill="none" xmlns="http://www.w3.org/2000/svg">
<path d="M157.68 42.18C155 42.18 153.16 40.6 153.1 38.26H154.46C154.54 39.96 155.8 41.04 157.68 41.04C159.62 41.04 160.8 39.98 160.8 38.28C160.8 36.66 159.48 35.62 157.4 35.62H156.06V34.46H157.36C159.02 34.46 160.18 33.4 160.18 31.88C160.18 30.42 159.1 29.42 157.56 29.42C155.96 29.42 154.9 30.42 154.82 31.98H153.48C153.54 29.86 155.3 28.28 157.6 28.28C160 28.28 161.62 29.74 161.62 31.82C161.62 33.22 160.78 34.34 159.3 34.96C161.16 35.42 162.24 36.62 162.24 38.26C162.24 40.58 160.4 42.18 157.68 42.18ZM168.671 28.3C171.371 28.3 173.371 30.24 173.371 32.72C173.371 34.38 172.711 35.42 171.571 36.86L167.511 42H165.911L169.971 36.84C169.431 37.06 168.871 37.14 168.371 37.14C165.851 37.14 163.951 35.4 163.951 32.76C163.951 30.24 165.951 28.3 168.671 28.3ZM168.651 29.46C166.751 29.46 165.391 30.84 165.391 32.72C165.391 34.74 166.751 36.08 168.651 36.08C170.511 36.08 171.931 34.92 171.931 32.76C171.931 30.84 170.511 29.46 168.651 29.46ZM175.129 35.26C175.129 30.78 176.849 28.28 179.929 28.28C182.989 28.28 184.729 30.78 184.729 35.26C184.729 39.74 183.029 42.2 179.929 42.2C176.809 42.2 175.129 39.74 175.129 35.26ZM176.569 35.26C176.569 38.98 177.709 40.96 179.929 40.96C182.109 40.96 183.289 39 183.289 35.26C183.289 31.5 182.109 29.52 179.929 29.52C177.749 29.52 176.569 31.48 176.569 35.26ZM192.99 40.26H191.71V35.88H187.35V34.7H191.71V30.34H192.99V34.7H197.35V35.88H192.99V40.26ZM211.353 42L206.153 29.82V42H204.753V27.64H206.693L212.013 40.16L217.373 27.64H219.293V42H217.913V29.82L212.673 42H211.353ZM228.906 42V40.08C228.286 41.4 227.006 42.2 225.366 42.2C223.186 42.2 221.766 40.98 221.766 39.08C221.766 37.02 223.406 35.94 226.606 35.94C227.246 35.94 227.726 35.98 228.766 36.06V35.18C228.766 33.42 227.826 32.38 226.226 32.38C224.506 32.38 223.426 33.44 223.406 35.16H222.126C222.186 32.82 223.806 31.26 226.206 31.26C228.666 31.26 230.106 32.7 230.106 35.14V42H228.906ZM223.106 39.04C223.106 40.32 224.086 41.18 225.566 41.18C227.526 41.18 228.766 39.9 228.766 37.92V36.98C227.866 36.9 227.246 36.88 226.666 36.88C224.266 36.88 223.106 37.58 223.106 39.04ZM234.451 36.36V42H233.051V31.46H234.351V33.86C235.071 32.3 236.631 31.3 238.371 31.3V32.76C236.151 32.68 234.451 34.06 234.451 36.36ZM241.483 42H240.083V27.64H241.483V36.36L246.563 31.46H248.223L242.903 36.62L248.662 42H246.843L241.483 36.94V42ZM253.988 42.2C251.028 42.2 249.068 39.98 249.068 36.64C249.068 33.56 251.108 31.26 253.908 31.26C256.908 31.26 258.868 33.68 258.628 37.06H250.468C250.588 39.56 251.908 41.1 253.968 41.1C255.728 41.1 256.948 40.12 257.288 38.44H258.668C258.188 40.78 256.408 42.2 253.988 42.2ZM253.888 32.34C251.988 32.34 250.648 33.8 250.468 36.1H257.168C257.048 33.74 255.828 32.34 253.888 32.34ZM266.342 40.66V41.9C265.802 42.12 265.342 42.2 264.822 42.2C263.082 42.2 261.742 41.3 261.742 39.02V32.64H259.262V31.46H261.742V28.34H263.142V31.46H266.442V32.64H263.142V38.72C263.142 40.36 263.942 40.92 265.102 40.92C265.542 40.92 265.902 40.84 266.342 40.66ZM162.24 64.7V66H153.62V51.64H162.1V52.94H155.12V57.94H161.5V59.24H155.12V64.7H162.24ZM165.186 66H163.626L167.506 60.6L163.866 55.46H165.466L168.446 59.72L171.446 55.46H172.946L169.346 60.64L173.186 66H171.586L168.366 61.48L165.186 66ZM184.567 60.72C184.567 63.98 182.747 66.2 179.947 66.2C178.367 66.2 177.027 65.34 176.307 63.84V69.86H174.907V55.46H176.207V57.74C176.927 56.18 178.327 55.26 179.947 55.26C182.747 55.26 184.567 57.5 184.567 60.72ZM183.147 60.72C183.147 58.06 181.767 56.48 179.707 56.48C177.747 56.48 176.287 58.04 176.287 60.72C176.287 63.34 177.707 64.98 179.707 64.98C181.767 64.98 183.147 63.42 183.147 60.72ZM190.961 66.2C188.001 66.2 186.041 63.98 186.041 60.64C186.041 57.56 188.081 55.26 190.881 55.26C193.881 55.26 195.841 57.68 195.601 61.06H187.441C187.561 63.56 188.881 65.1 190.941 65.1C192.701 65.1 193.921 64.12 194.261 62.44H195.641C195.161 64.78 193.381 66.2 190.961 66.2ZM190.861 56.34C188.961 56.34 187.621 57.8 187.441 60.1H194.141C194.021 57.74 192.801 56.34 190.861 56.34ZM199.315 60.36V66H197.915V55.46H199.215V57.86C199.935 56.3 201.495 55.3 203.235 55.3V56.76C201.015 56.68 199.315 58.06 199.315 60.36ZM210.991 64.66V65.9C210.451 66.12 209.991 66.2 209.471 66.2C207.731 66.2 206.391 65.3 206.391 63.02V56.64H203.911V55.46H206.391V52.34H207.791V55.46H211.091V56.64H207.791V62.72C207.791 64.36 208.591 64.92 209.751 64.92C210.191 64.92 210.551 64.84 210.991 64.66ZM221.068 63.06C221.068 65 219.508 66.2 216.908 66.2C214.288 66.2 212.688 64.88 212.488 62.7H213.828C213.928 64.2 215.108 65.14 216.908 65.14C218.628 65.14 219.668 64.48 219.668 63.28C219.668 62.24 219.068 61.76 217.468 61.44L215.948 61.14C213.948 60.76 212.888 59.78 212.888 58.26C212.888 56.5 214.448 55.26 216.748 55.26C219.168 55.26 220.768 56.56 220.928 58.66H219.608C219.468 57.2 218.408 56.34 216.748 56.34C215.268 56.34 214.248 57.04 214.248 58.14C214.248 59.18 214.888 59.68 216.448 59.98L218.028 60.28C220.128 60.68 221.068 61.56 221.068 63.06Z" fill="white"/>
<path d="M225 1H148C139.163 1 132 8.16344 132 17V75C132 83.8366 139.163 91 148 91H225" stroke="url(#paint0_linear_3645_353)" stroke-width="2"/>
<path d="M132 46H0" stroke="url(#paint1_linear_3645_353)" stroke-width="2"/>
<defs>
<linearGradient id="paint0_linear_3645_353" x1="132" y1="46" x2="225" y2="46" gradientUnits="userSpaceOnUse">
<stop stop-color="#0084FF"/>
<stop offset="1" stop-color="#0084FF" stop-opacity="0"/>
</linearGradient>
<linearGradient id="paint1_linear_3645_353" x1="-2.45869e-07" y1="46.5" x2="132" y2="46.5004" gradientUnits="userSpaceOnUse">
<stop stop-color="#0084FF" stop-opacity="0"/>
<stop offset="1" stop-color="#0084FF"/>
</linearGradient>
</defs>
</svg>
