<svg width="70" height="48" viewBox="0 0 70 48" fill="none" xmlns="http://www.w3.org/2000/svg">
<rect x="0.5" y="0.5" width="69" height="47" rx="5.5" fill="white" fill-opacity="0.04" stroke="url(#paint0_linear_3593_699)"/>
<path d="M52.4463 23.1702C53.4717 22.0816 54.7301 21.6943 56.1816 22.095C57.067 22.3422 57.5395 22.9835 57.5928 23.885C57.6459 24.7664 57.2463 25.4274 56.4141 25.8147C55.5752 26.202 54.6828 26.2624 53.7773 26.2825C53.5977 26.2758 53.4115 26.2756 53.2119 26.2756C53.152 26.9301 53.6177 27.4311 54.3301 27.5247C54.9959 27.6048 55.6358 27.5047 56.2617 27.2776C56.3681 27.2376 56.4678 27.1972 56.6074 27.1438C56.6474 27.5779 56.7007 27.9854 56.7207 28.3928C56.7273 28.473 56.6338 28.5997 56.5605 28.6331C55.4288 29.1004 54.2639 29.2609 53.0723 28.9338C52.0004 28.64 51.4409 27.8587 51.3076 26.7903C51.1412 25.4211 51.4941 24.1853 52.4463 23.1702ZM20.5518 21.9407C21.1176 21.9741 21.6773 22.1076 22.2432 22.1877C22.4692 22.2212 22.5028 22.3487 22.4629 22.5422C22.2099 23.8645 21.9435 25.18 21.7305 26.5022C21.6173 27.2034 21.5837 27.9252 21.5371 28.6331C21.5238 28.8467 21.4704 28.9336 21.251 28.927C20.8381 28.9136 20.4246 28.9136 20.0117 28.927C19.799 28.9336 19.7262 28.8535 19.7461 28.6467C19.7727 28.3261 19.7857 27.9919 19.8057 27.6379C19.4728 27.9852 19.2067 28.3394 18.8672 28.5999C18.168 29.1408 17.3682 29.261 16.5625 28.887C15.7638 28.5196 15.4376 27.8045 15.4043 26.9631C15.3312 25.1934 15.9508 23.7312 17.4355 22.7161C18.3677 22.0749 19.4398 21.8806 20.5518 21.9407ZM46.1533 22.8293C47.1455 21.9811 48.311 21.7143 49.5762 22.095C50.4215 22.3488 50.8942 22.983 50.9541 23.8577C51.014 24.7192 50.6408 25.3808 49.8418 25.7815C49.216 26.0953 48.5431 26.2082 47.8574 26.2483C47.4314 26.2683 46.9988 26.2483 46.5596 26.2483C46.513 26.9429 46.9856 27.4378 47.6914 27.5247C48.3772 27.6048 49.0366 27.4974 49.6758 27.2502C49.7423 27.2236 49.8155 27.1969 49.8887 27.1702C49.902 27.1635 49.9224 27.1702 49.9756 27.1702C50.0155 27.5776 50.0621 27.9854 50.082 28.3928C50.0885 28.473 49.9949 28.5997 49.915 28.6331C48.8031 29.0871 47.6513 29.2471 46.4795 28.9465C45.3876 28.666 44.7879 27.8785 44.668 26.7766C44.4948 25.2205 44.9481 23.8579 46.1533 22.8293ZM33.1162 21.968C33.9684 21.8746 34.7677 21.9813 35.4668 22.5022C36.1323 22.9963 36.4582 23.6908 36.5049 24.512C36.5582 25.3668 36.4122 26.1822 36.0127 26.9436C35.2603 28.3595 34.0546 29.0469 32.8428 29.0803C31.0783 29.0803 30.0732 28.4257 29.707 27.2502C29.1013 25.3134 30.2664 22.2886 33.1162 21.968ZM40.2402 22.6624C40.8994 22.088 41.6522 21.8346 42.5244 21.9749C43.2433 22.0952 43.7424 22.6224 43.8223 23.3635C43.9155 24.1916 43.742 24.9929 43.5889 25.7942C43.4024 26.7626 43.2234 27.7319 43.0303 28.6936C43.0102 28.7803 42.9103 28.9064 42.8438 28.9133C42.2712 28.9267 41.6985 28.92 41.126 28.9133C41.0994 28.9133 41.0727 28.8931 41.0195 28.8665C41.126 28.3123 41.2322 27.7515 41.332 27.1907C41.4852 26.3291 41.6315 25.4741 41.7646 24.6125C41.7913 24.4657 41.7778 24.3122 41.7578 24.1653C41.7046 23.6511 41.3256 23.4171 40.833 23.5706C40.3537 23.7241 40.067 24.098 39.834 24.512C39.4878 25.1197 39.3679 25.7945 39.248 26.469C39.1149 27.2103 38.9883 27.9454 38.8418 28.6868C38.8217 28.7736 38.7218 28.9067 38.6553 28.9133C38.0693 28.9334 37.4767 28.927 36.8242 28.927C37.2637 26.6295 37.676 24.3785 38.0889 22.1077H39.7803C39.7536 22.4683 39.7276 22.8162 39.6943 23.1702C39.8874 22.9898 40.0605 22.816 40.2402 22.6624ZM9.94434 19.6165C11.1895 19.4295 12.4414 19.2967 13.6865 19.6106C14.7718 19.8778 15.5307 20.6455 15.6572 21.5471C15.9169 23.3437 14.8717 24.7799 13.3203 25.2942C12.5013 25.5613 11.6689 25.6282 10.8232 25.5481C10.6235 25.5281 10.5636 25.581 10.5303 25.7747C10.3505 26.7563 10.1638 27.7313 9.9707 28.7063C9.9574 28.7864 9.88451 28.9131 9.83789 28.9133C9.23196 28.9267 8.63923 28.9202 8 28.9202C8.09317 28.4195 8.1666 27.9589 8.25977 27.4983C8.73918 24.967 9.22566 22.4417 9.70508 19.9104C9.73837 19.7503 9.78466 19.6431 9.94434 19.6165ZM63.001 21.9475C62.8745 22.582 62.7671 23.1702 62.6406 23.7512C62.627 23.7978 62.5414 23.8576 62.4883 23.8645C61.1765 24.0382 60.6231 24.5056 60.2969 25.8547C60.0705 26.7896 59.9177 27.7512 59.7246 28.6995C59.7113 28.7794 59.6384 28.9058 59.5918 28.9065C58.9792 28.9265 58.3662 28.9202 57.707 28.9202C57.7936 28.4261 57.8734 27.9787 57.96 27.5247C58.3062 25.7949 58.6592 24.065 58.8057 22.2952C58.8123 22.2217 58.9126 22.1016 58.9658 22.095C59.4717 22.0816 59.9776 22.0881 60.5234 22.0881C60.4835 22.5622 60.4503 23.0097 60.417 23.4504C61.0296 22.5488 61.7358 21.8139 63.001 21.9475ZM34.4346 24.4924C34.368 23.7245 33.7886 23.3168 33.083 23.4768C32.7369 23.5569 32.4769 23.7707 32.2705 24.051C31.8111 24.6854 31.6245 25.4003 31.6045 26.1682C31.6045 26.2684 31.5978 26.3757 31.6045 26.4758C31.6578 27.1771 32.1572 27.6248 32.8164 27.5647C33.1826 27.5313 33.4689 27.3374 33.6953 27.0569C34.2878 26.3023 34.5144 25.434 34.4346 24.4924ZM20.2734 23.51C19.6276 23.3297 19.0876 23.4574 18.6348 23.8381C17.7827 24.5594 17.3965 25.4944 17.4697 26.6096C17.4897 26.9501 17.623 27.2771 17.9824 27.4241C18.342 27.571 18.6686 27.4643 18.9482 27.2239C19.1147 27.077 19.2747 26.9099 19.3945 26.7229C20.0269 25.7545 20.0404 24.6186 20.2734 23.51ZM55.2559 23.4104C54.4702 23.1967 53.491 23.9178 53.4043 24.8528C53.8304 24.8261 54.2302 24.8193 54.623 24.7659C54.8893 24.7325 55.1559 24.6528 55.3955 24.5393C55.6551 24.4257 55.7812 24.1847 55.7412 23.8909C55.7012 23.6108 55.5152 23.4772 55.2559 23.4104ZM48.5918 23.4104C47.7996 23.2167 46.8607 23.911 46.7539 24.7991C47.2666 24.9059 48.3183 24.7793 48.7246 24.5657C49.0043 24.4187 49.1443 24.1851 49.0977 23.9045C49.051 23.6174 48.8581 23.4772 48.5918 23.4104ZM12.9805 21.1262C12.5079 20.9594 12.022 20.9931 11.5361 21.0598C11.4762 21.0665 11.3961 21.1599 11.3828 21.22C11.2164 22.0948 11.0497 22.9765 10.8633 23.9583C11.2693 23.9583 11.6355 23.9914 11.9883 23.9514C12.6808 23.8779 13.2339 23.5638 13.5469 22.9026C13.8996 22.1547 13.6462 21.3599 12.9805 21.1262Z" fill="white"/>
<path d="M40.127 14C40.3066 14.0401 40.4863 14.1002 40.666 14.127C41.4118 14.2472 42.0117 14.6482 42.5244 15.1758C42.6508 15.3027 42.7767 15.5559 42.7236 15.6895C42.6637 15.8364 42.4239 15.9772 42.2441 16.0039C40.5663 16.251 38.9348 16.692 37.3701 17.3398C36.4648 17.7138 35.5792 18.1672 34.7139 18.6279C32.8295 19.6431 31.3292 20.9875 29.8311 22.4902C28.2463 24.0798 26.7361 25.8811 25.4443 27.7178C24.6386 28.8598 24.0717 29.791 23.3525 30.9932C22.9931 31.5941 22.5752 32.52 22.2822 33.1611C22.2357 33.2544 22.136 33.4207 22.1025 33.4082C21.9762 33.3682 21.7895 33.2953 21.7559 33.1953C21.676 32.9482 21.596 32.6602 21.6426 32.4131C21.8956 31.0709 22.4551 29.8356 23.0742 28.627C24.2794 26.2894 25.7911 24.1585 27.5557 22.2217C28.5611 21.1197 29.5998 20.0442 30.6719 19.0156C32.2831 17.4596 34.0809 16.144 36.085 15.1289C37.0105 14.6614 37.9695 14.307 38.9883 14.1133C39.1613 14.0799 39.3278 14.0402 39.4941 14.0068C39.7139 14.0002 39.9205 14 40.127 14ZM22.8545 15.5098C22.8412 15.3094 22.9548 15.2086 23.1279 15.2754C23.301 15.3355 23.4741 15.4357 23.6006 15.5625C24.6593 16.6912 25.3251 18.0072 25.5049 19.5566C25.5448 19.8571 25.5583 20.1576 25.585 20.458C25.565 21.393 25.4045 22.2949 25.085 23.1631C25.0517 23.2565 24.9855 23.3369 24.9189 23.417C24.7725 23.6107 24.6122 23.6307 24.499 23.417C24.3526 23.1365 24.2334 22.8356 24.1602 22.5352C23.9471 21.5936 23.7471 20.6454 23.5674 19.6904C23.3343 18.4749 23.1271 17.2526 22.9141 16.0371C22.8808 15.8636 22.8678 15.6833 22.8545 15.5098Z" fill="#FC461E"/>
<defs>
<linearGradient id="paint0_linear_3593_699" x1="1.5" y1="3.0331e-07" x2="70" y2="49.5" gradientUnits="userSpaceOnUse">
<stop stop-color="#D9D9D9" stop-opacity="0.3"/>
<stop offset="0.5" stop-color="#737373" stop-opacity="0"/>
<stop offset="1" stop-color="#D9D9D9" stop-opacity="0.3"/>
</linearGradient>
</defs>
</svg>
