<svg width="70" height="48" viewBox="0 0 70 48" fill="none" xmlns="http://www.w3.org/2000/svg">
<rect x="0.5" y="0.5" width="69" height="47" rx="5.5" fill="white" fill-opacity="0.04" stroke="url(#paint0_linear_3593_690)"/>
<path fill-rule="evenodd" clip-rule="evenodd" d="M19.8 30.4819H16.6888C16.4759 30.4819 16.2948 30.6367 16.2616 30.8468L15.0033 38.8249C14.9783 38.9824 15.1002 39.1243 15.2599 39.1243H16.7452C16.9581 39.1243 17.1392 38.9695 17.1724 38.759L17.5118 36.6072C17.5445 36.3965 17.726 36.2419 17.9385 36.2419H18.9234C20.9729 36.2419 22.1556 35.2502 22.4647 33.2849C22.6038 32.4251 22.4705 31.7495 22.0678 31.2762C21.6257 30.7569 20.8413 30.4819 19.8 30.4819ZM20.159 33.3958C19.9889 34.5123 19.1358 34.5123 18.3111 34.5123H17.8416L18.1709 32.4272C18.1905 32.3013 18.2997 32.2085 18.4271 32.2085H18.6422C19.2041 32.2085 19.7341 32.2085 20.008 32.5287C20.1712 32.7198 20.2213 33.0036 20.159 33.3958ZM29.1002 33.36H27.6103C27.4834 33.36 27.3737 33.4529 27.3541 33.579L27.2882 33.9956L27.184 33.8447C26.8615 33.3765 26.1423 33.22 25.4244 33.22C23.7779 33.22 22.3718 34.467 22.0979 36.2163C21.9556 37.0887 22.1579 37.923 22.6529 38.5049C23.107 39.0398 23.7567 39.2628 24.5295 39.2628C25.856 39.2628 26.5918 38.4097 26.5918 38.4097L26.5253 38.8238C26.5002 38.9822 26.6221 39.1241 26.7809 39.1241H28.123C28.3365 39.1241 28.5165 38.9693 28.5501 38.7588L29.3554 33.6594C29.3809 33.5026 29.2594 33.36 29.1002 33.36ZM27.0234 36.2598C26.8796 37.111 26.204 37.6824 25.3426 37.6824C24.9099 37.6824 24.564 37.5436 24.3421 37.2807C24.1219 37.0196 24.0381 36.6478 24.1082 36.2339C24.2425 35.3899 24.9295 34.8 25.7779 34.8C26.2009 34.8 26.5449 34.9405 26.7714 35.2057C26.9983 35.4737 27.0885 35.8476 27.0234 36.2598ZM35.5379 33.3598H37.0352C37.2449 33.3598 37.3672 33.595 37.2481 33.767L32.2685 40.9548C32.1878 41.0712 32.055 41.1405 31.9131 41.1405H30.4177C30.2072 41.1405 30.0842 40.9034 30.2061 40.731L31.7567 38.5424L30.1076 33.7028C30.0506 33.5346 30.1748 33.3598 30.3537 33.3598H31.8249C32.016 33.3598 32.1847 33.4853 32.2398 33.6683L33.115 36.5912L35.1801 33.5495C35.2609 33.4308 35.3952 33.3598 35.5379 33.3598Z" fill="white"/>
<path fill-rule="evenodd" clip-rule="evenodd" d="M51.7703 38.8248L53.0471 30.7008C53.0667 30.5747 53.176 30.4819 53.3029 30.4814H54.7404C54.8991 30.4814 55.021 30.6238 54.996 30.7812L53.7368 38.7589C53.704 38.9695 53.5229 39.1242 53.3097 39.1242H52.0259C51.8671 39.1242 51.7452 38.9823 51.7703 38.8248ZM41.9915 30.4819H38.8797C38.6673 30.4819 38.4863 30.6366 38.453 30.8467L37.1947 38.8248C37.1696 38.9823 37.2915 39.1242 37.4505 39.1242H39.0471C39.1955 39.1242 39.3225 39.016 39.3456 38.8686L39.7027 36.6071C39.7355 36.3964 39.917 36.2419 40.1294 36.2419H41.1138C43.1637 36.2419 44.3463 35.2501 44.6555 33.2848C44.7951 32.425 44.661 31.7494 44.2585 31.2762C43.8166 30.7568 43.0328 30.4819 41.9915 30.4819ZM42.3505 33.3958C42.1808 34.5122 41.3277 34.5122 40.5025 34.5122H40.0334L40.3633 32.4271C40.3829 32.3012 40.4911 32.2084 40.6189 32.2084H40.8341C41.3955 32.2084 41.9261 32.2084 42.1997 32.5286C42.3631 32.7198 42.4128 33.0036 42.3505 33.3958ZM51.2909 33.36H49.8021C49.6741 33.36 49.5654 33.4528 49.5463 33.5789L49.4804 33.9956L49.3758 33.8446C49.0532 33.3764 48.3345 33.22 47.6166 33.22C45.9701 33.22 44.5644 34.4669 44.2905 36.2162C44.1486 37.0886 44.3501 37.9229 44.845 38.5048C45.3 39.0398 45.9488 39.2627 46.7217 39.2627C48.0482 39.2627 48.7838 38.4097 48.7838 38.4097L48.7174 38.8238C48.6924 38.9821 48.8143 39.124 48.9741 39.124H50.3156C50.528 39.124 50.709 38.9693 50.7423 38.7587L51.548 33.6593C51.5726 33.5025 51.4507 33.36 51.2909 33.36ZM49.2143 36.2598C49.0713 37.1109 48.3949 37.6823 47.5332 37.6823C47.1014 37.6823 46.7549 37.5436 46.5328 37.2806C46.3126 37.0196 46.2299 36.6478 46.2991 36.2339C46.4341 35.3899 47.1202 34.8 47.9686 34.8C48.3918 34.8 48.7356 34.9404 48.9623 35.2057C49.1901 35.4737 49.2802 35.8476 49.2143 36.2598Z" fill="#179BD7"/>
<path d="M31.3153 27.6279L31.6978 25.1984L30.8458 25.1786H26.7773L29.6047 7.25093C29.6134 7.19681 29.642 7.14634 29.6837 7.11051C29.7254 7.07468 29.7788 7.05493 29.8344 7.05493H36.6944C38.9719 7.05493 40.5435 7.52885 41.3641 8.46424C41.7487 8.90306 41.9938 9.36161 42.1123 9.86624C42.2365 10.3958 42.2389 11.0284 42.1174 11.8L42.1085 11.8563V12.3506L42.4934 12.5686C42.8174 12.7405 43.0746 12.9372 43.2721 13.1625C43.6014 13.5376 43.8142 14.0145 43.9041 14.5798C43.997 15.1612 43.9662 15.8531 43.8142 16.6364C43.6386 17.5374 43.3549 18.3222 42.9717 18.9643C42.6191 19.556 42.17 20.0466 41.637 20.427C41.1279 20.7883 40.5231 21.0626 39.8393 21.2382C39.1765 21.4106 38.4212 21.4977 37.5925 21.4977H37.0586C36.6769 21.4977 36.306 21.6352 36.015 21.8817C35.7233 22.1333 35.53 22.4769 35.4708 22.8529L35.4306 23.0716L34.7548 27.3535L34.7241 27.5108C34.7161 27.5607 34.7022 27.5855 34.6818 27.6024C34.6635 27.6175 34.6372 27.6279 34.6115 27.6279H31.3153Z" fill="#253B80"/>
<path d="M42.8577 11.9136C42.8373 12.0445 42.8139 12.1783 42.7876 12.3158C41.8828 16.9606 38.7878 18.5652 34.8348 18.5652H32.8221C32.3387 18.5652 31.9314 18.9163 31.856 19.3931L30.8255 25.9286L30.5337 27.781C30.4846 28.094 30.7261 28.3763 31.0419 28.3763H34.6118C35.0345 28.3763 35.3935 28.0692 35.46 27.6523L35.4952 27.4709L36.1674 23.2056L36.2105 22.9717C36.2762 22.5534 36.636 22.2462 37.0588 22.2462H37.5927C41.0512 22.2462 43.7588 20.842 44.5501 16.7785C44.8807 15.0811 44.7095 13.6637 43.8348 12.6669C43.5701 12.3663 43.2417 12.1169 42.8577 11.9136Z" fill="#179BD7"/>
<path d="M41.9109 11.5364C41.7728 11.4962 41.63 11.4596 41.4837 11.4267C41.3368 11.3945 41.186 11.366 41.0311 11.3411C40.4883 11.2534 39.8938 11.2117 39.2567 11.2117H33.8799C33.7475 11.2117 33.6218 11.2416 33.5092 11.2958C33.2612 11.415 33.0769 11.6498 33.0323 11.9372L31.8883 19.182L31.8555 19.3933C31.9308 18.9165 32.3382 18.5654 32.8216 18.5654H34.8342C38.7873 18.5654 41.8824 16.9601 42.7871 12.316C42.814 12.1785 42.8368 12.0447 42.8572 11.9138C42.6283 11.7924 42.3803 11.6885 42.1134 11.6C42.0477 11.5781 41.9797 11.5569 41.9109 11.5364Z" fill="#222D65"/>
<path d="M33.0311 11.9371C33.0758 11.6497 33.2602 11.4149 33.508 11.2964C33.6215 11.2423 33.7465 11.2123 33.8787 11.2123H39.2558C39.8928 11.2123 40.4874 11.254 41.0299 11.3418C41.185 11.3666 41.3358 11.3951 41.4827 11.4273C41.629 11.4602 41.7716 11.4968 41.9099 11.537C41.9785 11.5575 42.0465 11.5787 42.1131 11.5999C42.38 11.6884 42.628 11.793 42.8568 11.9137C43.1261 10.1972 42.8547 9.02849 41.9267 7.97021C40.9036 6.80518 39.0568 6.3064 36.6939 6.3064H29.8337C29.3509 6.3064 28.9393 6.65743 28.8646 7.13501L26.0073 25.247C25.9509 25.6053 26.2273 25.9287 26.5886 25.9287H30.824L31.8873 19.1819L33.0311 11.9371Z" fill="#253B80"/>
<defs>
<linearGradient id="paint0_linear_3593_690" x1="1.5" y1="3.0331e-07" x2="70" y2="49.5" gradientUnits="userSpaceOnUse">
<stop stop-color="#D9D9D9" stop-opacity="0.3"/>
<stop offset="0.5" stop-color="#737373" stop-opacity="0"/>
<stop offset="1" stop-color="#D9D9D9" stop-opacity="0.3"/>
</linearGradient>
</defs>
</svg>
