<svg width="70" height="48" viewBox="0 0 70 48" fill="none" xmlns="http://www.w3.org/2000/svg">
<rect x="0.5" y="0.5" width="69" height="47" rx="5.5" fill="white" fill-opacity="0.04" stroke="url(#paint0_linear_3593_636)"/>
<path d="M45.0049 17.8809C47.484 17.8809 49.8217 20.1137 49.8359 24.2119C49.8359 28.6917 47.527 30.7265 44.9912 30.7266C43.7446 30.7266 42.9934 30.2043 42.4834 29.8369L42.4697 33.8359L38.9277 34.585V18.1074H42.0439L42.2285 18.9834C42.7243 18.5312 43.6168 17.881 45.0049 17.8809ZM14.7881 17.8809C15.9639 17.8809 17.1259 18.0649 18.3018 18.5312V21.8516C17.2251 21.2722 15.8647 20.9473 14.7881 20.9473C14.0374 20.9473 13.584 21.1598 13.584 21.7109C13.5848 23.2933 18.9819 22.5448 18.9961 26.7559C18.996 29.2854 16.97 30.7412 14.0234 30.7412C12.8052 30.7412 11.4736 30.5007 10.1562 29.9355V26.5723C11.3462 27.2222 12.8478 27.7021 14.0234 27.7021C14.8166 27.7021 15.3826 27.4906 15.3828 26.8408C15.3828 25.1591 10 25.7803 10 21.8799C10.0001 19.3787 11.9125 17.8809 14.7881 17.8809ZM23.1465 18.1211H25.8379V21.1309H23.1465V26.1484C23.1467 28.2395 25.3844 27.59 25.8379 27.4062V30.2744C25.3704 30.5288 24.5201 30.7412 23.3584 30.7412C21.2619 30.7411 19.6896 29.2007 19.6895 27.1094L19.7041 15.7891L23.1602 15.0547L23.1465 18.1211ZM55.8848 17.8809C59.242 17.8811 60.998 20.7359 60.998 24.3535C60.998 24.6928 60.9697 25.4276 60.9697 25.6113H54.043C54.1989 27.2787 55.4169 27.7588 56.791 27.7588C58.1935 27.7588 59.2984 27.4619 60.2617 26.9814V29.8086C59.2985 30.3455 58.0235 30.7265 56.3379 30.7266C52.8812 30.7266 50.4727 28.5789 50.4727 24.3252C50.4727 20.7357 52.5131 17.8809 55.8848 17.8809ZM30.2441 19.167C31.08 17.6407 32.7371 17.9515 33.1904 18.1211V21.3711C32.7512 21.2156 31.3348 21.0183 30.499 22.1064V30.4863H26.957V18.1211H30.0166L30.2441 19.167ZM37.6104 30.4863H34.0547V18.1211H37.6104V30.4863ZM44.1543 21.0186C43.347 21.0186 42.837 21.3012 42.4688 21.7109L42.4834 26.9531C42.8234 27.3205 43.3187 27.6181 44.1543 27.6182C45.4576 27.6182 46.3359 26.2042 46.3359 24.3105C46.3358 22.4594 45.4434 21.0186 44.1543 21.0186ZM55.8701 20.75C54.9776 20.75 54 21.4139 54 23.0107H57.6553C57.6553 21.4139 56.7343 20.75 55.8701 20.75ZM37.6104 16.2842L34.0547 17.0469V14.1641L37.6104 13.415V16.2842Z" fill="#6461FC"/>
<defs>
<linearGradient id="paint0_linear_3593_636" x1="1.5" y1="3.0331e-07" x2="70" y2="49.5" gradientUnits="userSpaceOnUse">
<stop stop-color="#D9D9D9" stop-opacity="0.3"/>
<stop offset="0.5" stop-color="#737373" stop-opacity="0"/>
<stop offset="1" stop-color="#D9D9D9" stop-opacity="0.3"/>
</linearGradient>
</defs>
</svg>
