<svg width="285" height="92" viewBox="0 0 285 92" fill="none" xmlns="http://www.w3.org/2000/svg">
<path d="M156.4 42H155.02V29.68H152.36V28.48H156.4V42ZM168.337 38.78H166.517V42H165.137V38.78H158.557V37.84L165.537 28.48H166.517V37.56H168.337V38.78ZM160.177 37.56H165.137V30.76L160.177 37.56ZM170.208 35.26C170.208 30.78 171.928 28.28 175.008 28.28C178.068 28.28 179.808 30.78 179.808 35.26C179.808 39.74 178.108 42.2 175.008 42.2C171.888 42.2 170.208 39.74 170.208 35.26ZM171.648 35.26C171.648 38.98 172.788 40.96 175.008 40.96C177.188 40.96 178.368 39 178.368 35.26C178.368 31.5 177.188 29.52 175.008 29.52C172.828 29.52 171.648 31.48 171.648 35.26ZM181.848 35.26C181.848 30.78 183.568 28.28 186.648 28.28C189.708 28.28 191.448 30.78 191.448 35.26C191.448 39.74 189.748 42.2 186.648 42.2C183.528 42.2 181.848 39.74 181.848 35.26ZM183.288 35.26C183.288 38.98 184.428 40.96 186.648 40.96C188.828 40.96 190.008 39 190.008 35.26C190.008 31.5 188.828 29.52 186.648 29.52C184.468 29.52 183.288 31.48 183.288 35.26ZM193.489 35.26C193.489 30.78 195.209 28.28 198.289 28.28C201.349 28.28 203.089 30.78 203.089 35.26C203.089 39.74 201.389 42.2 198.289 42.2C195.169 42.2 193.489 39.74 193.489 35.26ZM194.929 35.26C194.929 38.98 196.069 40.96 198.289 40.96C200.469 40.96 201.649 39 201.649 35.26C201.649 31.5 200.469 29.52 198.289 29.52C196.109 29.52 194.929 31.48 194.929 35.26ZM211.349 40.26H210.069V35.88H205.709V34.7H210.069V30.34H211.349V34.7H215.709V35.88H211.349V40.26ZM229.552 42.3C225.432 42.3 222.292 39.14 222.292 34.82C222.292 30.58 225.292 27.34 229.452 27.34C233.192 27.34 235.632 29.68 236.452 32.56H234.752C234.132 30.38 232.312 28.68 229.412 28.68C226.112 28.68 223.832 31.22 223.832 34.84C223.832 38.38 226.132 41 229.592 41C232.712 41 234.692 39.06 235.072 36.04H229.432V34.82H236.632C236.592 39.36 233.792 42.3 229.552 42.3ZM240.35 42H238.95V27.64H240.35V42ZM247.603 42.2C244.703 42.2 242.603 39.9 242.603 36.72C242.603 33.56 244.703 31.28 247.603 31.28C250.523 31.28 252.623 33.56 252.623 36.72C252.623 39.9 250.523 42.2 247.603 42.2ZM247.603 40.98C249.663 40.98 251.203 39.34 251.203 36.72C251.203 34.14 249.663 32.5 247.603 32.5C245.563 32.5 244.023 34.14 244.023 36.72C244.023 39.34 245.563 40.98 247.603 40.98ZM264.547 36.72C264.547 39.96 262.727 42.2 259.907 42.2C258.287 42.2 256.927 41.32 256.187 39.78V42H254.887V27.64H256.287V33.68C256.967 32.14 258.307 31.26 259.907 31.26C262.727 31.26 264.547 33.48 264.547 36.72ZM263.127 36.72C263.127 34.04 261.747 32.48 259.687 32.48C257.707 32.48 256.267 34.02 256.267 36.68C256.267 39.32 257.667 40.98 259.687 40.98C261.747 40.98 263.127 39.4 263.127 36.72ZM273.281 42V40.08C272.661 41.4 271.381 42.2 269.741 42.2C267.561 42.2 266.141 40.98 266.141 39.08C266.141 37.02 267.781 35.94 270.981 35.94C271.621 35.94 272.101 35.98 273.141 36.06V35.18C273.141 33.42 272.201 32.38 270.601 32.38C268.881 32.38 267.801 33.44 267.781 35.16H266.501C266.561 32.82 268.181 31.26 270.581 31.26C273.041 31.26 274.481 32.7 274.481 35.14V42H273.281ZM267.481 39.04C267.481 40.32 268.461 41.18 269.941 41.18C271.901 41.18 273.141 39.9 273.141 37.92V36.98C272.241 36.9 271.621 36.88 271.041 36.88C268.641 36.88 267.481 37.58 267.481 39.04ZM278.826 42H277.426V27.64H278.826V42ZM158.7 66H157.22V52.98H152.4V51.64H163.52V52.98H158.7V66ZM165.936 60.36V66H164.536V55.46H165.836V57.86C166.556 56.3 168.116 55.3 169.856 55.3V56.76C167.636 56.68 165.936 58.06 165.936 60.36ZM178.047 66V64.08C177.427 65.4 176.147 66.2 174.507 66.2C172.327 66.2 170.907 64.98 170.907 63.08C170.907 61.02 172.547 59.94 175.747 59.94C176.387 59.94 176.867 59.98 177.907 60.06V59.18C177.907 57.42 176.967 56.38 175.367 56.38C173.647 56.38 172.567 57.44 172.547 59.16H171.267C171.327 56.82 172.947 55.26 175.347 55.26C177.807 55.26 179.247 56.7 179.247 59.14V66H178.047ZM172.247 63.04C172.247 64.32 173.227 65.18 174.707 65.18C176.667 65.18 177.907 63.9 177.907 61.92V60.98C177.007 60.9 176.387 60.88 175.807 60.88C173.407 60.88 172.247 61.58 172.247 63.04ZM181.412 60.72C181.412 57.48 183.212 55.26 186.052 55.26C187.632 55.26 188.972 56.16 189.672 57.66V51.64H191.072V66H189.772V63.78C189.032 65.32 187.672 66.2 186.052 66.2C183.212 66.2 181.412 63.96 181.412 60.72ZM182.832 60.72C182.832 63.4 184.192 64.98 186.252 64.98C188.292 64.98 189.692 63.32 189.692 60.68C189.692 58.02 188.252 56.48 186.252 56.48C184.192 56.48 182.832 58.04 182.832 60.72ZM198.246 66.2C195.286 66.2 193.326 63.98 193.326 60.64C193.326 57.56 195.366 55.26 198.166 55.26C201.166 55.26 203.126 57.68 202.886 61.06H194.726C194.846 63.56 196.166 65.1 198.226 65.1C199.986 65.1 201.206 64.12 201.546 62.44H202.926C202.446 64.78 200.666 66.2 198.246 66.2ZM198.146 56.34C196.246 56.34 194.906 57.8 194.726 60.1H201.426C201.306 57.74 200.086 56.34 198.146 56.34ZM206.6 60.36V66H205.2V55.46H206.5V57.86C207.22 56.3 208.78 55.3 210.52 55.3V56.76C208.3 56.68 206.6 58.06 206.6 60.36ZM220.111 63.06C220.111 65 218.551 66.2 215.951 66.2C213.331 66.2 211.731 64.88 211.531 62.7H212.871C212.971 64.2 214.151 65.14 215.951 65.14C217.671 65.14 218.711 64.48 218.711 63.28C218.711 62.24 218.111 61.76 216.511 61.44L214.991 61.14C212.991 60.76 211.931 59.78 211.931 58.26C211.931 56.5 213.491 55.26 215.791 55.26C218.211 55.26 219.811 56.56 219.971 58.66H218.651C218.511 57.2 217.451 56.34 215.791 56.34C214.311 56.34 213.291 57.04 213.291 58.14C213.291 59.18 213.931 59.68 215.491 59.98L217.071 60.28C219.171 60.68 220.111 61.56 220.111 63.06Z" fill="white"/>
<path d="M225 1H148C139.163 1 132 8.16344 132 17V75C132 83.8366 139.163 91 148 91H225" stroke="url(#paint0_linear_3645_352)" stroke-width="2"/>
<path d="M132 46H0" stroke="url(#paint1_linear_3645_352)" stroke-width="2"/>
<defs>
<linearGradient id="paint0_linear_3645_352" x1="132" y1="46" x2="225" y2="46" gradientUnits="userSpaceOnUse">
<stop stop-color="#0084FF"/>
<stop offset="1" stop-color="#0084FF" stop-opacity="0"/>
</linearGradient>
<linearGradient id="paint1_linear_3645_352" x1="-2.45869e-07" y1="46.5" x2="132" y2="46.5004" gradientUnits="userSpaceOnUse">
<stop stop-color="#0084FF" stop-opacity="0"/>
<stop offset="1" stop-color="#0084FF"/>
</linearGradient>
</defs>
</svg>
