<svg width="70" height="48" viewBox="0 0 70 48" fill="none" xmlns="http://www.w3.org/2000/svg">
<rect x="0.5" y="0.5" width="69" height="47" rx="5.5" fill="white" fill-opacity="0.04" stroke="url(#paint0_linear_3593_682)"/>
<path fill-rule="evenodd" clip-rule="evenodd" d="M21.2505 32.5165H17.0099L13.8299 20.3847C13.679 19.8267 13.3585 19.3333 12.8871 19.1008C11.7106 18.5165 10.4142 18.0514 9 17.8169V17.3498H15.8313C16.7742 17.3498 17.4813 18.0514 17.5991 18.8663L19.2491 27.6173L23.4877 17.3498H27.6104L21.2505 32.5165ZM29.9678 32.5166H25.9629L29.2607 17.3499H33.2656L29.9678 32.5166ZM38.4471 21.5514C38.565 20.7346 39.2721 20.2675 40.0971 20.2675C41.3934 20.1502 42.8056 20.3848 43.9841 20.9671L44.6913 17.7016C43.5127 17.2345 42.2163 17 41.0399 17C37.1528 17 34.3243 19.1008 34.3243 22.0165C34.3243 24.2346 36.3278 25.3992 37.7421 26.1008C39.2721 26.8004 39.8613 27.2675 39.7435 27.9671C39.7435 29.0165 38.565 29.4836 37.3885 29.4836C35.9743 29.4836 34.56 29.1338 33.2657 28.5494L32.5586 31.8169C33.9728 32.3992 35.5029 32.6338 36.9171 32.6338C41.2756 32.749 43.9841 30.6502 43.9841 27.5C43.9841 23.5329 38.4471 23.3004 38.4471 21.5514ZM58.0013 32.5166L54.8213 17.3499H51.4056C50.6985 17.3499 49.9914 17.8169 49.7557 18.5165L43.8672 32.5166H47.99L48.8129 30.3005H53.8785L54.3499 32.5166H58.0013ZM51.9944 21.4341L53.1709 27.1502H49.873L51.9944 21.4341Z" fill="#002EFF"/>
<defs>
<linearGradient id="paint0_linear_3593_682" x1="1.5" y1="3.0331e-07" x2="70" y2="49.5" gradientUnits="userSpaceOnUse">
<stop stop-color="#D9D9D9" stop-opacity="0.3"/>
<stop offset="0.5" stop-color="#737373" stop-opacity="0"/>
<stop offset="1" stop-color="#D9D9D9" stop-opacity="0.3"/>
</linearGradient>
</defs>
</svg>
