<svg width="70" height="48" viewBox="0 0 70 48" fill="none" xmlns="http://www.w3.org/2000/svg">
<rect x="0.5" y="0.5" width="69" height="47" rx="5.5" fill="white" fill-opacity="0.04" stroke="url(#paint0_linear_3593_650)"/>
<path d="M57.6289 35.855H57.6904L58.8818 32.1138H60L58.1094 37.1978C57.5869 38.601 56.9486 39.3325 55.748 39.3325V38.4995C56.4583 38.4995 56.8974 37.9498 57.1484 37.1978L55.1426 32.1138H56.292L57.6289 35.855ZM22.1875 31.9409C23.4928 31.9409 24.2968 32.7646 24.2969 34.4214V34.7974H20.8926C20.8926 36.0171 21.4039 36.557 22.4795 36.5571C23.0435 36.5571 23.5661 36.3634 24.1406 36.0278V36.8003C23.6707 37.065 23.0441 37.269 22.292 37.269C20.5375 37.269 19.8165 36.2114 19.8164 34.605C19.8164 33.0598 20.6207 31.9409 22.1875 31.9409ZM26.335 32.3169C26.6483 32.1542 27.1812 31.9409 27.7451 31.9409C29.0398 31.9411 29.7393 32.8159 29.7393 34.4429C29.7391 36.3435 28.7997 37.269 27.2852 37.269C26.7313 37.269 25.8748 37.0958 25.248 36.77V29.6733L26.335 29.4194V32.3169ZM41.6064 31.9409C42.9851 31.9411 43.9883 32.8258 43.9883 34.605C43.9881 36.3434 43.0373 37.2689 41.6064 37.269C40.1754 37.269 39.2248 36.3436 39.2246 34.605C39.2246 32.8257 40.2278 31.9409 41.6064 31.9409ZM52.709 31.9409C54.0148 31.941 54.8193 32.7646 54.8193 34.4214V34.7974H51.4141C51.4141 36.0173 51.9262 36.5562 53.002 36.5562C53.5658 36.556 54.0883 36.3633 54.6621 36.0278V36.8003C54.1924 37.0649 53.5657 37.269 52.8135 37.269C51.0592 37.269 50.338 36.2114 50.3379 34.605C50.3379 33.0598 51.1424 31.9409 52.709 31.9409ZM13.3398 35.3169H13.4131L14.7705 29.938H15.7002L17.1523 35.3169H17.2256L18.291 29.938H19.5127L17.8203 37.147H16.6924L15.2725 32.0728H15.1992L13.8203 37.147H12.6924L11 29.938H12.1699L13.3398 35.3169ZM34.4922 35.6216H34.5449L36.7793 29.938H38.0752V37.147H36.9473V31.9204H36.8525L34.7217 37.147H34.0537L31.9229 32.0425H31.8291V37.147H30.8887V29.938H32.1523L34.4922 35.6216ZM47.6416 31.9409C48.8954 31.9409 49.3651 32.4186 49.3652 33.4653V37.147H48.2793V33.6997C48.2792 32.8968 47.8722 32.7545 47.3398 32.7544C46.9219 32.7544 46.3891 32.938 46.0654 33.1206V37.147H44.9785V32.6929C45.4485 32.4183 46.4412 31.9409 47.6416 31.9409ZM27.4629 32.7339C27.0448 32.7339 26.7421 32.8461 26.3242 33.0698V36.394C26.6582 36.5364 27.0239 36.5571 27.2852 36.5571C28.058 36.5571 28.6435 36.0892 28.6436 34.4429C28.6436 33.1513 28.1626 32.7339 27.4629 32.7339ZM41.6055 32.6528C40.916 32.6528 40.3203 33.2326 40.3203 34.605C40.3204 35.9981 40.8642 36.5571 41.6055 36.5571C42.3468 36.557 42.8895 35.9979 42.8896 34.605C42.8896 33.2328 42.3155 32.653 41.6055 32.6528ZM22.1572 32.6226C21.5197 32.6226 21.0286 33.1002 20.9141 34.1167H23.3057C23.2539 33.0493 22.7211 32.6228 22.1572 32.6226ZM52.6758 32.6226C52.0387 32.6228 51.5487 33.1004 51.4336 34.1167H53.8252C53.7733 33.049 53.2398 32.6226 52.6758 32.6226Z" fill="white"/>
<path d="M34.7988 8.62671C36.2363 8.62671 37.5981 8.95253 38.8105 9.53101C39.0008 9.61885 39.1906 9.71534 39.3809 9.82202L38.5381 10.5564L37.2725 9.28198L35.1348 11.1375L33.8662 9.78882L29.8848 13.282L32.4375 16.0203L31.4346 16.8787L33.9482 19.6199L32.9512 20.4773L36.543 24.3689L38.6748 22.4578L40.5186 24.5056C40.1519 24.7831 39.7525 25.0446 39.3125 25.2859C37.9795 26.0258 36.4383 26.449 34.7988 26.449C29.7568 26.4488 25.6445 22.4452 25.6445 17.5378C25.6447 12.6296 29.7569 8.6269 34.7988 8.62671ZM43.0068 22.2517L41.374 23.6824L39.9043 22.0935L41.5371 20.6619L43.0068 22.2517ZM38.8174 20.8474L36.6406 22.7556L34.6797 20.6365L36.8564 18.7283L38.8174 20.8474ZM41.5723 19.0417L39.9395 20.4724L38.4688 18.8835L40.1025 17.4519L41.5723 19.0417ZM37.2676 17.1863L35.0908 19.0935L33.1309 16.9744L35.3076 15.0662L37.2676 17.1863ZM44.0234 17.989L42.9355 18.9431L41.9551 17.8845L43.0439 16.9304L44.0234 17.989ZM40.1768 15.6833L38.5449 17.114L37.0742 15.5251L38.707 14.0945L40.1768 15.6833ZM42.6309 14.8416L41.543 15.7957L40.5625 14.7361L41.6514 13.782L42.6309 14.8416ZM35.709 13.5671L33.5322 15.4753L31.5723 13.3562L33.749 11.449L35.709 13.5671ZM38.6709 12.488L37.0381 13.9187L35.5684 12.3289L37.2012 10.8982L38.6709 12.488ZM41.2402 11.6941L40.1514 12.6472L39.1719 11.5876L40.2607 10.6345L41.2402 11.6941Z" fill="#0068A3"/>
<defs>
<linearGradient id="paint0_linear_3593_650" x1="1.5" y1="3.0331e-07" x2="70" y2="49.5" gradientUnits="userSpaceOnUse">
<stop stop-color="#D9D9D9" stop-opacity="0.3"/>
<stop offset="0.5" stop-color="#737373" stop-opacity="0"/>
<stop offset="1" stop-color="#D9D9D9" stop-opacity="0.3"/>
</linearGradient>
</defs>
</svg>
