<svg width="270" height="92" viewBox="0 0 270 92" fill="none" xmlns="http://www.w3.org/2000/svg">
<path d="M16.0719 42H14.6919V29.68H12.0319V28.48H16.0719V42ZM23.1252 42.2C20.6652 42.2 18.7852 40.54 18.7052 38.24H20.0652C20.1852 39.9 21.4252 40.96 23.1252 40.96C25.1852 40.96 26.3652 39.68 26.3652 37.78C26.3652 36.08 25.0852 34.72 23.1652 34.72C21.8652 34.72 20.8652 35.28 20.2052 36.32L19.1252 36L20.3052 28.48H27.0252V29.7H21.3052L20.5652 34.58C21.3852 33.84 22.3052 33.52 23.3452 33.52C26.1052 33.52 27.7852 35.44 27.7852 37.76C27.7852 40.3 26.0252 42.2 23.1252 42.2ZM35.8455 40.26H34.5655V35.88H30.2055V34.7H34.5655V30.34H35.8455V34.7H40.2055V35.88H35.8455V40.26ZM52.9083 36.62V42H51.4083V36.62L46.1883 27.64H47.8283L52.2083 35.22L56.6083 27.64H58.1683L52.9083 36.62ZM62.1756 42.2C59.2156 42.2 57.2556 39.98 57.2556 36.64C57.2556 33.56 59.2956 31.26 62.0956 31.26C65.0956 31.26 67.0556 33.68 66.8156 37.06H58.6556C58.7756 39.56 60.0956 41.1 62.1556 41.1C63.9156 41.1 65.1356 40.12 65.4756 38.44H66.8556C66.3756 40.78 64.5956 42.2 62.1756 42.2ZM62.0756 32.34C60.1756 32.34 58.8356 33.8 58.6556 36.1H65.3556C65.2356 33.74 64.0156 32.34 62.0756 32.34ZM75.6094 42V40.08C74.9894 41.4 73.7094 42.2 72.0694 42.2C69.8894 42.2 68.4694 40.98 68.4694 39.08C68.4694 37.02 70.1094 35.94 73.3094 35.94C73.9494 35.94 74.4294 35.98 75.4694 36.06V35.18C75.4694 33.42 74.5294 32.38 72.9294 32.38C71.2094 32.38 70.1294 33.44 70.1094 35.16H68.8294C68.8894 32.82 70.5094 31.26 72.9094 31.26C75.3694 31.26 76.8094 32.7 76.8094 35.14V42H75.6094ZM69.8094 39.04C69.8094 40.32 70.7894 41.18 72.2694 41.18C74.2294 41.18 75.4694 39.9 75.4694 37.92V36.98C74.5694 36.9 73.9494 36.88 73.3694 36.88C70.9694 36.88 69.8094 37.58 69.8094 39.04ZM81.1544 36.36V42H79.7544V31.46H81.0544V33.86C81.7744 32.3 83.3344 31.3 85.0744 31.3V32.76C82.8544 32.68 81.1544 34.06 81.1544 36.36ZM94.6656 39.06C94.6656 41 93.1056 42.2 90.5056 42.2C87.8856 42.2 86.2856 40.88 86.0856 38.7H87.4256C87.5256 40.2 88.7056 41.14 90.5056 41.14C92.2256 41.14 93.2656 40.48 93.2656 39.28C93.2656 38.24 92.6656 37.76 91.0656 37.44L89.5456 37.14C87.5456 36.76 86.4856 35.78 86.4856 34.26C86.4856 32.5 88.0456 31.26 90.3456 31.26C92.7656 31.26 94.3656 32.56 94.5256 34.66H93.2056C93.0656 33.2 92.0056 32.34 90.3456 32.34C88.8656 32.34 87.8456 33.04 87.8456 34.14C87.8456 35.18 88.4856 35.68 90.0456 35.98L91.6256 36.28C93.7256 36.68 94.6656 37.56 94.6656 39.06ZM105.498 42.2C102.598 42.2 100.498 39.9 100.498 36.72C100.498 33.56 102.598 31.28 105.498 31.28C108.418 31.28 110.518 33.56 110.518 36.72C110.518 39.9 108.418 42.2 105.498 42.2ZM105.498 40.98C107.558 40.98 109.098 39.34 109.098 36.72C109.098 34.14 107.558 32.5 105.498 32.5C103.458 32.5 101.918 34.14 101.918 36.72C101.918 39.34 103.458 40.98 105.498 40.98ZM114.809 42H113.409V32.64H110.929V31.46H113.409V30.5C113.409 28.56 114.469 27.48 116.309 27.48C116.789 27.48 117.209 27.56 117.569 27.7V28.86C117.229 28.72 116.909 28.7 116.549 28.7C115.429 28.7 114.809 29.26 114.809 30.5V31.46H117.909V32.64H114.809V42ZM77.6297 66H76.1497V52.98H71.3297V51.64H82.4497V52.98H77.6297V66ZM84.8653 60.36V66H83.4653V55.46H84.7653V57.86C85.4853 56.3 87.0453 55.3 88.7853 55.3V56.76C86.5653 56.68 84.8653 58.06 84.8653 60.36ZM97.2366 61.74V55.46H98.6166V66H97.3166V64.1C96.7766 65.32 95.4966 66.2 93.9566 66.2C91.8166 66.2 90.3966 64.98 90.3966 62.32V55.46H91.7966V62.02C91.7966 64.16 92.8566 64.98 94.3366 64.98C96.0166 64.98 97.2366 63.62 97.2366 61.74ZM109.529 63.06C109.529 65 107.969 66.2 105.369 66.2C102.749 66.2 101.149 64.88 100.949 62.7H102.289C102.389 64.2 103.569 65.14 105.369 65.14C107.089 65.14 108.129 64.48 108.129 63.28C108.129 62.24 107.529 61.76 105.929 61.44L104.409 61.14C102.409 60.76 101.349 59.78 101.349 58.26C101.349 56.5 102.909 55.26 105.209 55.26C107.629 55.26 109.229 56.56 109.389 58.66H108.069C107.929 57.2 106.869 56.34 105.209 56.34C103.729 56.34 102.709 57.04 102.709 58.14C102.709 59.18 103.349 59.68 104.909 59.98L106.489 60.28C108.589 60.68 109.529 61.56 109.529 63.06ZM117.303 64.66V65.9C116.763 66.12 116.303 66.2 115.783 66.2C114.043 66.2 112.703 65.3 112.703 63.02V56.64H110.223V55.46H112.703V52.34H114.103V55.46H117.403V56.64H114.103V62.72C114.103 64.36 114.903 64.92 116.063 64.92C116.503 64.92 116.863 64.84 117.303 64.66Z" fill="white"/>
<path d="M45 1H122C130.837 1 138 8.16344 138 17V75C138 83.8366 130.837 91 122 91H45" stroke="url(#paint0_linear_3635_4355)" stroke-width="2"/>
<path d="M138 46H270" stroke="url(#paint1_linear_3635_4355)" stroke-width="2"/>
<defs>
<linearGradient id="paint0_linear_3635_4355" x1="138" y1="46" x2="45" y2="46" gradientUnits="userSpaceOnUse">
<stop stop-color="#0084FF"/>
<stop offset="1" stop-color="#0084FF" stop-opacity="0"/>
</linearGradient>
<linearGradient id="paint1_linear_3635_4355" x1="270" y1="46.5" x2="138" y2="46.5004" gradientUnits="userSpaceOnUse">
<stop stop-color="#0084FF" stop-opacity="0"/>
<stop offset="1" stop-color="#0084FF"/>
</linearGradient>
</defs>
</svg>
