<svg width="48" height="48" viewBox="0 0 48 48" fill="none" xmlns="http://www.w3.org/2000/svg">
<rect x="0.5" y="0.5" width="47" height="47" rx="23.5" stroke="white" stroke-opacity="0.32"/>
<path d="M26 16.1001L24 18.0001" stroke="white" stroke-width="1.25" stroke-linecap="round" stroke-linejoin="round"/>
<path d="M17.0992 20L14.1992 19.2" stroke="white" stroke-width="1.25" stroke-linecap="round" stroke-linejoin="round"/>
<path d="M17.9996 24L16.0996 26" stroke="white" stroke-width="1.25" stroke-linecap="round" stroke-linejoin="round"/>
<path d="M19.1992 14.2L19.9992 17.1" stroke="white" stroke-width="1.25" stroke-linecap="round" stroke-linejoin="round"/>
<path d="M21.0376 21.6899C20.9989 21.5986 20.9883 21.4977 21.0072 21.4003C21.0261 21.3029 21.0737 21.2133 21.1439 21.1432C21.2141 21.073 21.3036 21.0254 21.401 21.0065C21.4984 20.9875 21.5993 20.9981 21.6906 21.0369L32.6906 25.5369C32.7885 25.5771 32.8712 25.6473 32.9266 25.7374C32.9821 25.8275 33.0076 25.9329 32.9994 26.0384C32.9911 26.1439 32.9496 26.244 32.8809 26.3245C32.8121 26.4049 32.7196 26.4614 32.6166 26.4859L28.2676 27.5269C28.0881 27.5698 27.9239 27.6615 27.7933 27.792C27.6627 27.9224 27.5708 28.0864 27.5276 28.2659L26.4876 32.6159C26.4634 32.7192 26.4069 32.8121 26.3264 32.8812C26.2459 32.9503 26.1455 32.9919 26.0397 33.0002C25.9339 33.0084 25.8283 32.9828 25.738 32.927C25.6477 32.8712 25.5776 32.7882 25.5376 32.6899L21.0376 21.6899Z" stroke="white" stroke-width="1.25" stroke-linecap="round" stroke-linejoin="round"/>
</svg>
