<svg width="20" height="20" viewBox="0 0 20 20" fill="none" xmlns="http://www.w3.org/2000/svg">
<g clip-path="url(#clip0_71_10386)">
<path d="M10.0052 18.3334C14.6076 18.3334 18.3385 14.6025 18.3385 10.0001C18.3385 5.39771 14.6076 1.66675 10.0052 1.66675C5.40283 1.66675 1.67188 5.39771 1.67188 10.0001C1.67188 14.6025 5.40283 18.3334 10.0052 18.3334Z" stroke="white" stroke-width="1.5" stroke-linecap="round" stroke-linejoin="round"/>
<path d="M10.0052 1.66675C7.8654 3.91354 6.67188 6.89736 6.67188 10.0001C6.67188 13.1028 7.8654 16.0866 10.0052 18.3334C12.145 16.0866 13.3385 13.1028 13.3385 10.0001C13.3385 6.89736 12.145 3.91354 10.0052 1.66675Z" stroke="white" stroke-width="1.5" stroke-linecap="round" stroke-linejoin="round"/>
<path d="M1.67188 10H18.3385" stroke="white" stroke-width="2" stroke-linecap="round" stroke-linejoin="round"/>
<rect width="20" height="10" transform="translate(0 4.5)" fill="black"/>
<path d="M5.90825 12.57C5.43925 12.57 5.02625 12.465 4.66925 12.255C4.31225 12.045 4.03225 11.7428 3.82925 11.3485C3.62858 10.9542 3.52825 10.4805 3.52825 9.9275C3.52825 9.3815 3.62625 8.91367 3.82225 8.524C4.02058 8.13433 4.29475 7.83567 4.64475 7.628C4.99708 7.42033 5.40308 7.3165 5.86275 7.3165C6.18941 7.3165 6.49275 7.37833 6.77275 7.502C7.05508 7.62567 7.28725 7.81117 7.46925 8.0585C7.65125 8.3035 7.75625 8.6115 7.78425 8.9825H6.82175C6.80541 8.89617 6.77391 8.80983 6.72725 8.7235C6.68058 8.63483 6.61758 8.55433 6.53825 8.482C6.46125 8.40733 6.36558 8.34783 6.25125 8.3035C6.13925 8.25917 6.00741 8.237 5.85575 8.237C5.65275 8.237 5.46958 8.27433 5.30625 8.349C5.14291 8.42367 5.00291 8.5345 4.88625 8.6815C4.77191 8.82617 4.68325 9.00467 4.62025 9.217C4.55958 9.427 4.52925 9.6685 4.52925 9.9415C4.52925 10.3032 4.58175 10.6112 4.68675 10.8655C4.79175 11.1198 4.94808 11.3147 5.15575 11.45C5.36341 11.583 5.61891 11.6495 5.92225 11.6495C6.04358 11.6495 6.16608 11.639 6.28975 11.618C6.41341 11.597 6.52891 11.5667 6.63625 11.527C6.74591 11.485 6.83808 11.4325 6.91275 11.3695V10.5925H5.95025V9.756H7.84025L7.83675 11.891C7.56608 12.094 7.27325 12.2585 6.95825 12.3845C6.64325 12.5082 6.29325 12.57 5.90825 12.57ZM8.48764 12.5C8.63464 12.3157 8.77814 12.136 8.91814 11.961C9.06048 11.7837 9.19814 11.6087 9.33114 11.436C9.46648 11.2633 9.59831 11.0942 9.72664 10.9285C9.85498 10.7628 9.98098 10.6007 10.1046 10.442C10.3053 10.1807 10.4756 9.96017 10.6156 9.7805C10.758 9.60083 10.8665 9.43517 10.9411 9.2835C11.0158 9.1295 11.0531 8.96617 11.0531 8.7935C11.0531 8.5975 10.996 8.43767 10.8816 8.314C10.7673 8.19033 10.59 8.12967 10.3496 8.132C10.1863 8.13433 10.0416 8.17167 9.91564 8.244C9.79198 8.314 9.70214 8.42717 9.64614 8.5835C9.59014 8.7375 9.58081 8.9405 9.61814 9.1925H8.71864C8.66498 8.7515 8.70114 8.39217 8.82714 8.1145C8.95314 7.83683 9.14914 7.63267 9.41514 7.502C9.68348 7.37133 10.002 7.306 10.3706 7.306C10.7183 7.306 11.0111 7.36317 11.2491 7.4775C11.4871 7.59183 11.668 7.754 11.7916 7.964C11.9153 8.17167 11.976 8.419 11.9736 8.706C11.9736 8.972 11.9328 9.21 11.8511 9.42C11.7695 9.62767 11.6645 9.82133 11.5361 10.001C11.4101 10.1807 11.2783 10.3615 11.1406 10.5435C11.031 10.6905 10.9201 10.8375 10.8081 10.9845C10.6961 11.1292 10.5853 11.2715 10.4756 11.4115C10.366 11.5515 10.261 11.6857 10.1606 11.814C10.2376 11.73 10.331 11.6787 10.4406 11.66C10.5503 11.639 10.7055 11.6285 10.9061 11.6285H11.9631V12.5H8.48764ZM14.6556 12.5875C14.287 12.5875 13.9638 12.4977 13.6861 12.318C13.4085 12.136 13.1915 11.849 13.0351 11.457C12.8811 11.065 12.8041 10.554 12.8041 9.924C12.8041 9.315 12.8811 8.81917 13.0351 8.4365C13.1915 8.0515 13.4085 7.768 13.6861 7.586C13.9638 7.40167 14.287 7.3095 14.6556 7.3095C15.022 7.3095 15.3428 7.40167 15.6181 7.586C15.8935 7.768 16.1081 8.0515 16.2621 8.4365C16.4185 8.81917 16.4966 9.315 16.4966 9.924C16.4966 10.554 16.4185 11.065 16.2621 11.457C16.1081 11.849 15.8935 12.136 15.6181 12.318C15.3428 12.4977 15.022 12.5875 14.6556 12.5875ZM14.6556 11.6985C14.826 11.6985 14.9741 11.6437 15.1001 11.534C15.2285 11.4243 15.3276 11.2412 15.3976 10.9845C15.4676 10.7255 15.5026 10.3743 15.5026 9.931C15.5026 9.50167 15.4676 9.161 15.3976 8.909C15.3276 8.657 15.2285 8.47617 15.1001 8.3665C14.9741 8.2545 14.826 8.1985 14.6556 8.1985C14.483 8.1985 14.3325 8.2545 14.2041 8.3665C14.0758 8.47617 13.9755 8.657 13.9031 8.909C13.8331 9.161 13.7981 9.50167 13.7981 9.931C13.7981 10.3743 13.8331 10.7255 13.9031 10.9845C13.9755 11.2412 14.0758 11.4243 14.2041 11.534C14.3325 11.6437 14.483 11.6985 14.6556 11.6985Z" fill="white"/>
</g>
<defs>
<clipPath id="clip0_71_10386">
<rect width="20" height="20" fill="white"/>
</clipPath>
</defs>
</svg>
