<svg width="46" height="32" viewBox="0 0 46 32" fill="none" xmlns="http://www.w3.org/2000/svg">
<rect x="0.5" y="0.5" width="45" height="31" rx="15.5" fill="white" fill-opacity="0.04" stroke="url(#paint0_linear_3610_375)"/>
<path d="M29.1465 6.66699C34.0994 6.66726 38.1143 10.788 38.1143 15.8711C38.1142 20.9541 34.0993 25.0749 29.1465 25.0752C26.9255 25.0752 24.8945 24.2444 23.3281 22.8721C21.7619 24.244 19.7322 25.0751 17.5117 25.0752C12.5587 25.0752 8.54303 20.9543 8.54297 15.8711C8.54297 10.7879 12.5586 6.66699 17.5117 6.66699C19.7318 6.66708 21.762 7.49673 23.3281 8.86816C24.8944 7.49632 26.9259 6.66699 29.1465 6.66699Z" fill="#ED0006"/>
<path d="M29.1465 6.66699C34.0994 6.6672 38.1143 10.788 38.1143 15.8711C38.1142 20.9541 34.0994 25.075 29.1465 25.0752C26.9255 25.0752 24.8945 24.2444 23.3281 22.8721C25.2554 21.1839 26.4795 18.6753 26.4795 15.8711C26.4795 13.0664 25.2559 10.5563 23.3281 8.86816C24.8944 7.49629 26.9259 6.66699 29.1465 6.66699Z" fill="#F9A000"/>
<path d="M23.3281 8.86914C25.2557 10.5572 26.4794 13.0667 26.4795 15.8711C26.4795 18.6755 25.2556 21.1849 23.3281 22.873C21.4011 21.1849 20.1777 18.6751 20.1777 15.8711C20.1778 13.067 21.401 10.5572 23.3281 8.86914Z" fill="#FF5E00"/>
<defs>
<linearGradient id="paint0_linear_3610_375" x1="0.985715" y1="2.02206e-07" x2="46.4424" y2="32.379" gradientUnits="userSpaceOnUse">
<stop stop-color="#D9D9D9" stop-opacity="0.3"/>
<stop offset="0.5" stop-color="#737373" stop-opacity="0"/>
<stop offset="1" stop-color="#D9D9D9" stop-opacity="0.3"/>
</linearGradient>
</defs>
</svg>
