<svg width="56" height="56" viewBox="0 0 56 56" fill="none" xmlns="http://www.w3.org/2000/svg">
<rect x="0.5" y="0.5" width="55" height="55" rx="27.5" fill="white" fill-opacity="0.04"/>
<rect x="0.5" y="0.5" width="55" height="55" rx="27.5" stroke="url(#paint0_linear_3658_127)"/>
<path d="M31.941 38H34C34.5304 38 35.0391 37.7893 35.4142 37.4142C35.7893 37.0391 36 36.5304 36 36V24C36.0005 23.6834 35.9384 23.3699 35.8172 23.0775C35.6961 22.785 35.5182 22.5194 35.294 22.296L31.706 18.708C31.4825 18.4832 31.2167 18.3048 30.9238 18.1833C30.631 18.0618 30.317 17.9995 30 18H22C21.4696 18 20.9609 18.2107 20.5858 18.5858C20.2107 18.9609 20 19.4696 20 20V23.512" stroke="white" stroke-width="1.25" stroke-linecap="round" stroke-linejoin="round"/>
<path d="M30 18V23C30 23.2652 30.1054 23.5196 30.2929 23.7071C30.4804 23.8946 30.7348 24 31 24H36" stroke="white" stroke-width="1.25" stroke-linecap="round" stroke-linejoin="round"/>
<path d="M20.0174 27.5117C19.4058 28.0545 18.9116 28.7166 18.5651 29.4573C18.2187 30.198 18.0273 31.0018 18.0027 31.8191C17.9781 32.6365 18.1209 33.4503 18.4223 34.2105C18.7236 34.9707 19.1772 35.6612 19.7551 36.2398C20.333 36.8183 21.0231 37.2726 21.783 37.5748C22.5429 37.8769 23.3565 38.0206 24.1739 37.9969C24.9913 37.9732 25.7952 37.7826 26.5363 37.437C27.2774 37.0913 27.94 36.5978 28.4834 35.9867" stroke="white" stroke-width="1.25" stroke-linecap="round" stroke-linejoin="round"/>
<path d="M25 31.9999C24.7348 31.9999 24.4804 31.8946 24.2929 31.707C24.1054 31.5195 24 31.2651 24 30.9999V26.9999C24 26.4479 24.45 25.9919 24.995 26.0829C26.2253 26.2898 27.3605 26.875 28.2427 27.7572C29.1249 28.6394 29.7101 29.7746 29.917 31.0049C30.008 31.5489 29.552 31.9999 29 31.9999H25Z" stroke="white" stroke-width="1.25" stroke-linecap="round" stroke-linejoin="round"/>
<defs>
<linearGradient id="paint0_linear_3658_127" x1="0" y1="0" x2="56" y2="56" gradientUnits="userSpaceOnUse">
<stop stop-color="white" stop-opacity="0.4"/>
<stop offset="0.496676" stop-color="white" stop-opacity="0"/>
<stop offset="1" stop-color="white" stop-opacity="0.4"/>
</linearGradient>
</defs>
</svg>
