<svg width="132" height="129" viewBox="0 0 132 129" fill="none" xmlns="http://www.w3.org/2000/svg">
<path d="M131.845 58.9386C131.845 85.7278 113.092 99.1224 90.8035 106.891C89.6364 107.287 88.3686 107.268 87.2137 106.838C64.8716 99.1224 46.1191 85.7278 46.1191 58.9386V21.4338C46.1191 20.0128 46.6836 18.65 47.6884 17.6452C48.6932 16.6404 50.056 16.0759 51.477 16.0759C62.1927 16.0759 75.5872 9.64652 84.9099 1.5026C86.045 0.532828 87.4889 0 88.9818 0C90.4748 0 91.9187 0.532828 93.0538 1.5026C102.43 9.70009 115.771 16.0759 126.487 16.0759C127.908 16.0759 129.27 16.6404 130.275 17.6452C131.28 18.65 131.845 20.0128 131.845 21.4338V58.9386Z" fill="url(#paint0_linear_3572_80)"/>
<g clip-path="url(#clip0_3572_80)">
<path d="M88.9264 49.3476C95.4522 49.3476 100.742 44.0579 100.742 37.5328C100.742 31.0077 95.4522 25.718 88.9264 25.718C82.4006 25.718 77.1104 31.0077 77.1104 37.5328C77.1104 44.0579 82.4006 49.3476 88.9264 49.3476Z" fill="#004555"/>
<path d="M88.9262 54.2666C76.8258 54.2666 67.0146 64.0767 67.0146 76.1758C67.0146 79.3464 69.5883 81.9197 72.7591 81.9197H105.093C108.264 81.9197 110.852 79.3464 110.852 76.1758C110.852 64.0767 101.041 54.2666 88.9262 54.2666Z" fill="#004555"/>
</g>
<path d="M95.6356 64.7895C100.9 91.0564 85.145 107.875 64.8175 119.872C63.7508 120.489 62.504 120.72 61.2872 120.525C37.8646 117.35 16.8457 107.902 11.5816 81.6347L4.21177 44.8611C3.93255 43.4678 4.21824 42.0207 5.00599 40.838C5.79375 39.6554 7.01904 38.8341 8.41233 38.5549C18.9191 36.4492 30.7891 27.5131 38.3297 17.6961C39.2521 16.5222 40.5632 15.716 42.027 15.4226C43.4909 15.1292 45.0113 15.368 46.3149 16.0958C57.1191 22.291 71.4529 25.921 81.9596 23.8153C83.3529 23.5361 84.8 23.8218 85.9827 24.6096C87.1653 25.3973 87.9866 26.6226 88.2658 28.0159L95.6356 64.7895Z" fill="url(#paint1_linear_3572_80)" stroke="url(#paint2_linear_3572_80)" stroke-width="2" stroke-linecap="round" stroke-linejoin="round"/>
<g clip-path="url(#clip1_3572_80)">
<path d="M51.6698 63.8187C58.0684 62.5364 62.216 56.3103 60.9338 49.9124C59.6516 43.5145 53.4251 39.3675 47.0266 40.6498C40.628 41.9321 36.4803 48.1582 37.7625 54.5561C39.0447 60.954 45.2712 65.101 51.6698 63.8187Z" fill="url(#paint3_linear_3572_80)"/>
<path d="M52.6364 68.6421C40.7719 71.0198 33.0798 82.5666 35.4573 94.4298C36.0803 97.5385 39.1095 99.556 42.2185 98.9329L73.9222 92.5792C77.0312 91.9562 79.0629 88.9244 78.4399 85.8157C76.0624 73.9525 64.5149 66.2616 52.6364 68.6421Z" fill="url(#paint4_linear_3572_80)"/>
</g>
<defs>
<linearGradient id="paint0_linear_3572_80" x1="34.3411" y1="95.6615" x2="124.115" y2="77.9421" gradientUnits="userSpaceOnUse">
<stop stop-color="#83E5FD"/>
<stop offset="1" stop-color="#007C9B"/>
</linearGradient>
<linearGradient id="paint1_linear_3572_80" x1="7.24924" y1="119.956" x2="91.7911" y2="84.9413" gradientUnits="userSpaceOnUse">
<stop stop-color="white" stop-opacity="0.1"/>
<stop offset="1" stop-color="white" stop-opacity="0.23"/>
</linearGradient>
<linearGradient id="paint2_linear_3572_80" x1="42.027" y1="15.4226" x2="63.0871" y2="120.508" gradientUnits="userSpaceOnUse">
<stop stop-color="white"/>
<stop offset="1" stop-color="white" stop-opacity="0"/>
</linearGradient>
<linearGradient id="paint3_linear_3572_80" x1="47.0266" y1="40.6498" x2="51.6698" y2="63.8187" gradientUnits="userSpaceOnUse">
<stop stop-color="white" stop-opacity="0.67"/>
<stop offset="1" stop-color="white" stop-opacity="0"/>
</linearGradient>
<linearGradient id="paint4_linear_3572_80" x1="52.6434" y1="68.6407" x2="58.0773" y2="95.7547" gradientUnits="userSpaceOnUse">
<stop stop-color="white" stop-opacity="0.67"/>
<stop offset="1" stop-color="white" stop-opacity="0"/>
</linearGradient>
<clipPath id="clip0_3572_80">
<rect width="43.8373" height="56.2162" fill="white" transform="translate(67.0149 25.7178)"/>
</clipPath>
<clipPath id="clip1_3572_80">
<rect width="43.8373" height="56.2162" fill="white" transform="translate(25.5422 44.9553) rotate(-11.3325)"/>
</clipPath>
</defs>
</svg>
