<svg width="46" height="32" viewBox="0 0 46 32" fill="none" xmlns="http://www.w3.org/2000/svg">
<rect x="0.5" y="0.5" width="45" height="31" rx="15.5" fill="white" fill-opacity="0.04" stroke="url(#paint0_linear_3610_389)"/>
<path fill-rule="evenodd" clip-rule="evenodd" d="M15.5001 20.4998H12.9039L10.957 13.0722C10.8646 12.7306 10.6684 12.4285 10.3798 12.2862C9.65952 11.9284 8.86584 11.6437 8 11.5001V11.2141H12.1823C12.7596 11.2141 13.1925 11.6437 13.2646 12.1426L14.2748 17.5003L16.8698 11.2141H19.3939L15.5001 20.4998ZM20.8367 20.4999H18.3848L20.4038 11.2142H22.8557L20.8367 20.4999ZM26.0289 13.7866C26.1011 13.2864 26.534 13.0005 27.0391 13.0005C27.8328 12.9287 28.6973 13.0723 29.4189 13.4288L29.8518 11.4296C29.1303 11.1436 28.3366 11 27.6163 11C25.2365 11 23.5049 12.2862 23.5049 14.0713C23.5049 15.4293 24.7315 16.1423 25.5973 16.5719C26.534 17.0002 26.8948 17.2862 26.8226 17.7145C26.8226 18.357 26.1011 18.643 25.3808 18.643C24.515 18.643 23.6492 18.4288 22.8567 18.071L22.4238 20.0715C23.2897 20.428 24.2264 20.5716 25.0922 20.5716C27.7606 20.6422 29.4189 19.3572 29.4189 17.4285C29.4189 14.9997 26.0289 14.8574 26.0289 13.7866V13.7866ZM38.001 20.4999L36.0541 11.2142H33.9629C33.53 11.2142 33.0971 11.5002 32.9528 11.9285L29.3477 20.4999H31.8717L32.3756 19.1431H35.4769L35.7655 20.4999H38.001ZM34.3224 13.7148L35.0427 17.2144H33.0237L34.3224 13.7148Z" fill="#002EFF"/>
<defs>
<linearGradient id="paint0_linear_3610_389" x1="0.985715" y1="2.02206e-07" x2="46.4424" y2="32.379" gradientUnits="userSpaceOnUse">
<stop stop-color="#D9D9D9" stop-opacity="0.3"/>
<stop offset="0.5" stop-color="#737373" stop-opacity="0"/>
<stop offset="1" stop-color="#D9D9D9" stop-opacity="0.3"/>
</linearGradient>
</defs>
</svg>
